<svg width="65" height="81" viewBox="0 0 65 81" fill="none" xmlns="http://www.w3.org/2000/svg">
<path d="M18.4102 16.4435C13.7851 21.4623 17.0187 29.132 19.2136 32.3394L21.1985 34.2419C22.7864 36.2419 21.272 37.4232 20.3163 37.7638C17.4934 38.028 15.2157 41.7418 15.0548 43.9901C14.8531 46.8077 12.8389 52.5434 11.8569 55.0591C9.6893 60.4301 11.7729 62.3388 13.0857 62.6218C15.5809 62.6218 16.6458 60.6407 16.8664 59.6502C19.5003 55.8893 19.8752 52.0141 19.7334 50.5466C20.1493 46.3077 21.7183 45.7354 22.3957 44.4618C23.6434 42.6505 24.7849 43.0258 25.1998 43.4398C25.7291 44.1568 25.4203 44.9125 25.1998 45.2008C23.4102 46.4964 23.2464 50.6043 23.3882 52.4963C23.3882 54.9239 21.6238 57.7634 20.7416 58.8798C18.6244 61.8734 19.1873 63.7749 19.7334 64.3514C21.2142 65.5777 24.4121 63.501 25.3415 62.7791C28.5804 60.2634 28.7232 57.0559 28.4606 55.8452C27.6541 52.6881 29.2063 49.8653 30.0832 48.8485C32.2004 43.1757 31.3014 39.5982 30.5873 38.5185C28.7221 36.8959 29.0645 34.4044 29.4688 33.3614C31.0945 24.3679 28.7914 18.8072 27.4367 17.1511C26.9452 16.4215 25.7406 16.8471 25.1998 17.1511C23.4102 18.4466 24.4541 21.6111 25.1998 23.0314C26.0819 24.4905 26.0504 27.6225 25.9244 29.0062C25.0422 30.2263 23.866 29.5145 23.3882 29.0062C21.1197 25.937 21.7603 21.0399 22.3642 18.9749C22.7675 15.4907 19.8962 15.8356 18.4102 16.4435Z" fill="#EDC8AD"/>
<path d="M33.9092 16.2932C31.7088 16.6204 31.0801 18.9042 31.0801 20.6029C31.1901 22.4432 31.9341 23.7802 32.5733 24.3307C33.6546 25.1989 33.9145 27.2091 33.9092 28.1056C32.6644 31.9938 33.9459 33.3538 34.7423 33.5478C37.1816 33.7114 37.519 35.4825 37.3828 36.3476C37.0936 37.543 35.984 38.2298 35.4653 38.4238C32.9756 38.9271 33.0867 42.9852 33.4534 44.9513C34.1953 46.7758 33.7626 50.1995 33.4534 51.6832C32.4601 56.5655 33.9705 60.3499 34.868 61.9857C36.1882 64.3922 38.4935 64.9742 39.7719 64.3922C41.9723 62.9074 40.6887 59.6211 39.7719 58.1636C38.0367 54.8039 37.6814 52.6899 38.1687 51.0698C39.5393 48.1254 38.7398 45.4913 38.1687 44.5423C37.4268 42.7178 38.4778 41.8422 39.096 41.6325C41.7114 41.1292 42.586 44.6682 42.3024 46.823C41.9629 49.4026 42.4438 55.6364 42.7268 58.4309C42.9625 63.2754 45.2258 64.2821 47.1277 63.8102C50.1957 62.5645 49.8206 59.1178 49.2495 57.5501C48.4699 54.7693 47.5101 48.4116 47.1277 45.5804C46.9265 40.3962 43.1354 37.2651 41.265 36.3476C40.1459 35.5548 40.7987 34.8428 41.265 34.5859C44.0313 33.6296 45.4564 31.1465 45.8231 30.0246C47.9355 23.3052 45.9069 18.7312 44.6286 17.2841C43.0945 16.2523 41.747 17.2317 41.265 17.8504C39.8945 19.7127 41.2179 22.4642 42.0509 23.6072C43.0882 25.6047 41.6999 28.3048 41.265 29.2538C39.731 31.33 37.6163 30.0088 37.8072 28.9393C38.3101 26.1206 38.0168 22.3436 37.8072 20.8074C37.0653 16.6173 34.8995 16.0521 33.9092 16.2932Z" fill="#EDC8AD"/>
<path d="M16.3268 2.07565C21.1201 0.998494 28.6567 -0.12239 35.8167 0.0108142C39.4045 0.0775626 42.9989 0.460346 46.1448 1.3761C49.2424 2.2778 52.1424 3.7662 54.066 6.22087L54.1185 6.28841L54.1257 6.29788C57.2285 10.3959 63.293 21.9869 64.212 37.1566C64.8162 42.2149 65.0846 48.5557 64.4081 54.8148C63.7325 61.0658 62.0902 67.4709 58.6842 72.4095C56.3347 75.8163 52.0314 77.7821 47.4515 78.92C42.7735 80.0822 37.3036 80.5041 31.9954 80.4397C26.6752 80.3752 21.4073 79.8206 17.0966 78.9721C14.9428 78.5482 12.9863 78.0429 11.3613 77.4707C9.80106 76.9213 8.30776 76.2302 7.28336 75.3258C5.09985 73.3981 3.47969 71.3723 2.34496 68.8903C1.2238 66.438 0.640803 63.6795 0.332055 60.3822C-0.272031 53.9309 0.132751 44.6031 0.132758 30.2467V30.1604L0.138841 30.0744C0.502706 24.9329 0.95342 18.7014 3.02689 13.4511C5.16795 8.02969 9.11395 3.48427 16.3268 2.07565ZM35.7259 4.89039C29.0385 4.76597 21.8851 5.8261 17.3653 6.84435L17.329 6.8525L17.2924 6.85959C12.0463 7.87427 9.24377 10.996 7.56619 15.2438C5.82655 19.6489 5.38646 25.0669 5.01315 30.3339C5.01158 45.0149 4.61645 53.7887 5.19125 59.9272C5.47251 62.9309 5.9752 65.0929 6.78355 66.861C7.57834 68.5994 8.73153 70.094 10.5134 71.6671C10.8134 71.932 11.5775 72.3727 12.9822 72.8673C14.3221 73.339 16.0381 73.7897 18.0391 74.1836C22.038 74.9706 27.009 75.4984 32.0546 75.5596C37.1122 75.621 42.1352 75.212 46.2747 74.1835C50.5123 73.1307 53.3514 71.5458 54.6666 69.6387C57.4166 65.6512 58.921 60.1655 59.5559 54.2904C60.1868 48.4536 59.9354 42.464 59.3578 37.6664L59.349 37.5931L59.3447 37.5195C58.5026 23.3534 52.8104 12.6521 50.2422 9.25384C49.1975 7.90722 47.3827 6.81943 44.7808 6.06202C42.197 5.30989 39.0703 4.95261 35.7259 4.89039Z" fill="#EDC8AD"/>
</svg>
