<svg width="1254" height="770" viewBox="0 0 1254 770" fill="none" xmlns="http://www.w3.org/2000/svg">
<path d="M191.161 -937.814C42.4815 -915.709 0 -761.398 0 -646.617C7.43193 -522.272 57.7035 -431.936 100.892 -394.74C173.957 -336.075 191.515 -200.253 191.161 -139.675C107.051 123.042 193.639 214.936 247.447 228.044C412.27 239.096 435.067 358.764 425.863 417.217C406.323 497.987 331.345 544.395 296.299 557.503C128.079 591.511 135.584 865.706 160.364 998.552C210.49 1121.83 181.25 1353.16 160.364 1453.42C93.2451 1783.3 195.302 2039 255.94 2149.53C345.148 2312.14 500.911 2351.46 587.287 2312.14C735.967 2211.81 649.237 1989.76 587.287 1891.28C470.043 1664.27 446.038 1521.44 478.963 1411.97C571.57 1213.02 517.549 1035.04 478.963 970.92C428.837 847.639 499.849 788.478 541.621 774.308C718.338 740.299 777.432 979.423 758.269 1125.02C735.33 1299.32 767.827 1720.53 786.943 1909.35C802.87 2236.68 955.798 2304.7 1084.3 2272.81C1291.61 2188.64 1266.26 1955.75 1227.67 1849.83C1175 1661.93 1110.15 1232.36 1084.3 1041.06C1070.71 690.774 814.555 479.212 688.177 417.217C612.563 363.653 656.671 315.545 688.177 298.187C875.089 233.57 971.377 65.794 996.157 -10.017C1138.89 -464.033 1001.82 -773.086 915.445 -870.861C811.794 -940.579 720.745 -874.404 688.177 -832.602C595.571 -706.769 684.991 -520.855 741.277 -443.627C811.366 -308.656 717.559 -126.214 688.177 -62.0928C584.526 78.1929 441.642 -11.0798 454.537 -83.3482C488.521 -273.797 468.697 -529.002 454.537 -632.799C404.411 -915.921 258.067 -954.11 191.161 -937.814Z" fill="#FFFCF8"/>
</svg>
