<svg width="29" height="36" viewBox="0 0 29 36" fill="none" xmlns="http://www.w3.org/2000/svg">
<path d="M8.23849 7.35859C6.16874 9.60451 7.61578 13.0367 8.59802 14.4721L9.48627 15.3234C10.1969 16.2184 9.51916 16.7471 9.09149 16.8995C7.82821 17.0177 6.80894 18.6797 6.73694 19.6858C6.6467 20.9467 5.7453 23.5135 5.30588 24.6392C4.33586 27.0428 5.26828 27.8969 5.85574 28.0236C6.97239 28.0236 7.44895 27.1371 7.54764 26.6938C8.72633 25.0107 8.89411 23.2766 8.83066 22.6199C9.01677 20.7229 9.7189 20.4668 10.022 19.8969C10.5804 19.0863 11.0912 19.2543 11.2769 19.4396C11.5137 19.7604 11.3756 20.0986 11.2769 20.2276C10.476 20.8074 10.4027 22.6457 10.4662 23.4924C10.4662 24.5787 9.67661 25.8494 9.28183 26.349C8.33437 27.6887 8.58628 28.5396 8.83066 28.7976C9.49332 29.3464 10.9244 28.417 11.3403 28.094C12.7897 26.9682 12.8536 25.5328 12.7361 24.991C12.3752 23.5782 13.0698 22.315 13.4622 21.86C14.4097 19.3214 14.0074 17.7204 13.6878 17.2373C12.8531 16.5111 13.0064 15.3961 13.1873 14.9294C13.9148 10.9048 12.8842 8.41634 12.2779 7.6752C12.058 7.34873 11.5189 7.53917 11.2769 7.6752C10.476 8.25498 10.9432 9.67111 11.2769 10.3067C11.6716 10.9597 11.6575 12.3612 11.6011 12.9804C11.2064 13.5264 10.68 13.2079 10.4662 12.9804C9.45102 11.607 9.7377 9.41547 10.0079 8.4914C10.1884 6.9322 8.9035 7.08652 8.23849 7.35859Z" fill="#F7F0E9"/>
<path d="M15.1738 7.29063C14.1891 7.43704 13.9077 8.45904 13.9077 9.21924C13.9569 10.0428 14.2899 10.6411 14.5759 10.8874C15.0598 11.276 15.1761 12.1755 15.1738 12.5767C14.6167 14.3167 15.1902 14.9253 15.5466 15.0121C16.6382 15.0853 16.7892 15.8779 16.7282 16.265C16.5988 16.8 16.1022 17.1073 15.8701 17.1942C14.756 17.4194 14.8057 19.2354 14.9698 20.1152C15.3018 20.9317 15.1081 22.4638 14.9698 23.1278C14.5253 25.3127 15.2012 27.0062 15.6028 27.7382C16.1936 28.8152 17.2253 29.0756 17.7973 28.8152C18.782 28.1507 18.2076 26.6801 17.7973 26.0278C17.0208 24.5243 16.8618 23.5783 17.0799 22.8533C17.6932 21.5357 17.3355 20.3569 17.0799 19.9322C16.7479 19.1157 17.2182 18.7239 17.4949 18.6301C18.6653 18.4048 19.0567 19.9885 18.9298 20.9529C18.7778 22.1072 18.9931 24.8969 19.1197 26.1475C19.2251 28.3154 20.238 28.7659 21.0891 28.5547C22.4621 27.9972 22.2942 26.4548 22.0386 25.7533C21.6898 24.5088 21.2602 21.6638 21.0891 20.3968C20.9991 18.0768 19.3025 16.6756 18.4655 16.265C17.9647 15.9103 18.2569 15.5917 18.4655 15.4767C19.7035 15.0487 20.3412 13.9376 20.5053 13.4355C21.4506 10.4285 20.5428 8.38163 19.9707 7.73406C19.2842 7.27232 18.6812 7.7106 18.4655 7.98746C17.8522 8.82085 18.4444 10.0522 18.8172 10.5636C19.2814 11.4576 18.6601 12.6659 18.4655 13.0906C17.779 14.0197 16.8327 13.4284 16.9181 12.9498C17.1432 11.6884 17.0119 9.9982 16.9181 9.31076C16.5861 7.43563 15.6169 7.1827 15.1738 7.29063Z" fill="#F7F0E9"/>
<path d="M7.30631 0.928863C9.45135 0.446831 12.824 -0.05477 16.0281 0.00483939C17.6337 0.0347096 19.2422 0.206007 20.65 0.615813C22.0362 1.01933 23.334 1.68539 24.1948 2.78387L24.2183 2.81409L24.2215 2.81833C25.61 4.65221 28.3239 9.83926 28.7352 16.6278C29.0056 18.8914 29.1257 21.7289 28.8229 24.5299C28.5206 27.3273 27.7857 30.1936 26.2615 32.4036C25.21 33.9282 23.2843 34.8079 21.2348 35.3171C19.1413 35.8372 16.6936 36.026 14.3181 35.9972C11.9373 35.9683 9.57989 35.7201 7.65082 35.3404C6.68699 35.1507 5.81144 34.9246 5.08423 34.6685C4.38602 34.4227 3.71776 34.1134 3.25934 33.7087C2.28221 32.846 1.55718 31.9394 1.04938 30.8287C0.547655 29.7313 0.286763 28.4969 0.148596 27.0213C-0.121735 24.1344 0.0594068 19.9601 0.0594099 13.5355V13.4969L0.0621321 13.4584C0.224963 11.1576 0.42666 8.36897 1.35455 6.01944C2.31268 3.59332 4.07854 1.55923 7.30631 0.928863ZM15.9875 2.18847C12.9949 2.1328 9.79369 2.60721 7.77108 3.06288L7.7548 3.06653L7.73844 3.0697C5.39077 3.52378 4.13663 4.92076 3.38591 6.8217C2.60741 8.79296 2.41047 11.2176 2.24341 13.5746C2.2427 20.1444 2.06588 24.0707 2.32311 26.8177C2.44897 28.1619 2.67393 29.1294 3.03567 29.9206C3.39135 30.6986 3.9074 31.3674 4.70479 32.0714C4.83907 32.1899 5.181 32.3871 5.8096 32.6085C6.40921 32.8196 7.17713 33.0213 8.07259 33.1975C9.86212 33.5497 12.0867 33.7859 14.3446 33.8133C16.6079 33.8408 18.8557 33.6577 20.7082 33.1975C22.6045 32.7263 23.875 32.0171 24.4636 31.1637C25.6942 29.3792 26.3674 26.9244 26.6516 24.2952C26.9339 21.6832 26.8214 19.0028 26.5629 16.8559L26.559 16.8231L26.557 16.7902C26.1802 10.4508 23.6329 5.66186 22.4836 4.14114C22.0161 3.53852 21.204 3.05173 20.0396 2.71279C18.8833 2.3762 17.4841 2.21632 15.9875 2.18847Z" fill="#F7F0E9"/>
</svg>
