<svg width="126" height="36" viewBox="0 0 126 36" fill="none" xmlns="http://www.w3.org/2000/svg">
<path d="M8.238 7.35859C6.16825 9.60451 7.61529 13.0367 8.59753 14.4721L9.48578 15.3234C10.1964 16.2184 9.51868 16.7471 9.091 16.8995C7.82772 17.0177 6.80845 18.6797 6.73645 19.6858C6.64621 20.9467 5.74481 23.5135 5.30539 24.6392C4.33537 27.0428 5.26779 27.8969 5.85525 28.0236C6.97191 28.0236 7.44846 27.1371 7.54715 26.6938C8.72584 25.0107 8.89362 23.2766 8.83017 22.6199C9.01628 20.7229 9.71841 20.4668 10.0215 19.8969C10.5799 19.0863 11.0907 19.2543 11.2764 19.4396C11.5132 19.7604 11.3751 20.0986 11.2764 20.2276C10.4755 20.8074 10.4022 22.6457 10.4657 23.4924C10.4657 24.5787 9.67612 25.8494 9.28134 26.349C8.33388 27.6887 8.58579 28.5396 8.83017 28.7976C9.49283 29.3464 10.9239 28.417 11.3398 28.094C12.7892 26.9682 12.8531 25.5328 12.7356 24.991C12.3747 23.5782 13.0693 22.315 13.4617 21.86C14.4092 19.3214 14.0069 17.7204 13.6873 17.2373C12.8527 16.5111 13.0059 15.3961 13.1868 14.9294C13.9143 10.9048 12.8837 8.41634 12.2774 7.6752C12.0575 7.34873 11.5184 7.53917 11.2764 7.6752C10.4755 8.25498 10.9427 9.67111 11.2764 10.3067C11.6711 10.9597 11.657 12.3612 11.6007 12.9804C11.2059 13.5264 10.6795 13.2079 10.4657 12.9804C9.45053 11.607 9.73722 9.41547 10.0074 8.4914C10.1879 6.9322 8.90301 7.08652 8.238 7.35859Z" fill="#252727"/>
<path d="M15.1733 7.29063C14.1886 7.43704 13.9072 8.45904 13.9072 9.21924C13.9564 10.0428 14.2894 10.6411 14.5754 10.8874C15.0593 11.276 15.1756 12.1755 15.1733 12.5767C14.6162 14.3167 15.1897 14.9253 15.5461 15.0121C16.6377 15.0853 16.7887 15.8779 16.7277 16.265C16.5983 16.8 16.1017 17.1073 15.8696 17.1942C14.7555 17.4194 14.8052 19.2354 14.9693 20.1152C15.3013 20.9317 15.1076 22.4638 14.9693 23.1278C14.5248 25.3127 15.2007 27.0062 15.6023 27.7382C16.1932 28.8152 17.2248 29.0756 17.7968 28.8152C18.7816 28.1507 18.2071 26.6801 17.7968 26.0278C17.0203 24.5243 16.8613 23.5783 17.0794 22.8533C17.6927 21.5357 17.335 20.3569 17.0794 19.9322C16.7474 19.1157 17.2177 18.7239 17.4944 18.6301C18.6648 18.4048 19.0562 19.9885 18.9293 20.9529C18.7773 22.1072 18.9926 24.8969 19.1192 26.1475C19.2247 28.3154 20.2375 28.7659 21.0886 28.5547C22.4616 27.9972 22.2937 26.4548 22.0381 25.7533C21.6893 24.5088 21.2597 21.6638 21.0886 20.3968C20.9986 18.0768 19.302 16.6756 18.465 16.265C17.9642 15.9103 18.2564 15.5917 18.465 15.4767C19.703 15.0487 20.3407 13.9376 20.5048 13.4355C21.4501 10.4285 20.5423 8.38163 19.9702 7.73406C19.2838 7.27232 18.6807 7.7106 18.465 7.98746C17.8517 8.82085 18.4439 10.0522 18.8167 10.5636C19.2809 11.4576 18.6596 12.6659 18.465 13.0906C17.7786 14.0197 16.8322 13.4284 16.9176 12.9498C17.1427 11.6884 17.0114 9.9982 16.9176 9.31076C16.5857 7.43563 15.6164 7.1827 15.1733 7.29063Z" fill="#252727"/>
<path d="M7.30631 0.928863C9.45135 0.446831 12.824 -0.05477 16.0281 0.00483939C17.6337 0.0347096 19.2422 0.206007 20.65 0.615813C22.0362 1.01933 23.334 1.68539 24.1948 2.78387L24.2183 2.81409L24.2215 2.81833C25.61 4.65221 28.3239 9.83926 28.7352 16.6278C29.0056 18.8914 29.1257 21.7289 28.8229 24.5299C28.5206 27.3273 27.7857 30.1936 26.2615 32.4036C25.21 33.9282 23.2843 34.8079 21.2348 35.3171C19.1413 35.8372 16.6936 36.026 14.3181 35.9972C11.9373 35.9683 9.57989 35.7201 7.65082 35.3404C6.68699 35.1507 5.81144 34.9246 5.08423 34.6685C4.38602 34.4227 3.71776 34.1134 3.25934 33.7087C2.28221 32.846 1.55718 31.9394 1.04938 30.8287C0.547655 29.7313 0.286763 28.4969 0.148596 27.0213C-0.121735 24.1344 0.0594068 19.9601 0.0594099 13.5355V13.4969L0.0621321 13.4584C0.224963 11.1576 0.42666 8.36897 1.35455 6.01944C2.31268 3.59332 4.07854 1.55923 7.30631 0.928863ZM15.9875 2.18847C12.9949 2.1328 9.79369 2.60721 7.77108 3.06288L7.7548 3.06653L7.73844 3.0697C5.39077 3.52378 4.13663 4.92076 3.38591 6.8217C2.60741 8.79296 2.41047 11.2176 2.24341 13.5746C2.2427 20.1444 2.06588 24.0707 2.32311 26.8177C2.44897 28.1619 2.67393 29.1294 3.03567 29.9206C3.39135 30.6986 3.9074 31.3674 4.70479 32.0714C4.83907 32.1899 5.181 32.3871 5.8096 32.6085C6.40921 32.8196 7.17713 33.0213 8.07259 33.1975C9.86212 33.5497 12.0867 33.7859 14.3446 33.8133C16.6079 33.8408 18.8557 33.6577 20.7082 33.1975C22.6045 32.7263 23.875 32.0171 24.4636 31.1637C25.6942 29.3792 26.3674 26.9244 26.6516 24.2952C26.9339 21.6832 26.8214 19.0028 26.5629 16.8559L26.559 16.8231L26.557 16.7902C26.1802 10.4508 23.6329 5.66186 22.4836 4.14114C22.0161 3.53852 21.204 3.05173 20.0396 2.71279C18.8833 2.3762 17.4841 2.21632 15.9875 2.18847Z" fill="#252727"/>
<path d="M50.1206 10.5957H51.8979L57.0175 25.404H55.1578L53.8443 21.4461H48.1742L46.8607 25.404H45.001L50.1206 10.5957ZM53.2504 19.6688L51.0093 13.0059L48.7681 19.6688H53.2504Z" fill="#252727"/>
<path d="M119.103 10.5957H120.88L126 25.404H124.14L122.827 21.4461H117.157L115.843 25.404H113.983L119.103 10.5957ZM122.233 19.6688L119.992 13.0059L117.75 19.6688H122.233Z" fill="#252727"/>
<path d="M73.1957 19.0142L77.535 10.5957H75.4845L72.268 17.1545L69.0514 10.5957H67.001L71.336 19.0142V23.748H69.6887V25.404H74.869V23.748H73.1957V19.0142Z" fill="#252727"/>
<path d="M100.775 10.6045L96.5222 22.3826H96.4528L92.2002 10.6045H89.3955V25.4041H91.2552V13.2315H91.2942L95.8329 25.3044H97.1421L101.681 13.2315H101.724V25.4041H103.584V10.6045H100.775Z" fill="#252727"/>
</svg>
