<svg width="220" height="15" viewBox="0 0 220 15" fill="none" xmlns="http://www.w3.org/2000/svg">
<path d="M5.11961 0H6.89695L12.0166 14.8083H10.1568L8.84335 10.8504H3.1732L1.8597 14.8083H0L5.11961 0ZM8.24946 9.0731L6.00828 2.41025L3.76709 9.0731H8.24946Z" fill="#6C5751"/>
<path d="M74.102 0H75.8794L80.999 14.8083H79.1393L77.8258 10.8504H72.1556L70.8421 14.8083H68.9824L74.102 0ZM77.2319 9.0731L74.9907 2.41025L72.7495 9.0731H77.2319Z" fill="#6C5751"/>
<path d="M28.1947 8.41852L32.534 0H30.4835L27.267 6.55882L24.0504 0H22L26.335 8.41852V13.1523H24.6877V14.8083H29.868V13.1523H28.1947V8.41852Z" fill="#6C5751"/>
<path d="M55.7738 0.00878906L51.5212 11.7869H51.4519L47.1993 0.00878906H44.3945V14.8084H46.2542V2.63578H46.2932L50.832 14.7087H52.1411L56.6798 2.63578H56.7232V14.8084H58.5829V0.00878906H55.7738Z" fill="#6C5751"/>
<path d="M219.606 12.4859C219.606 12.7525 219.539 13 219.415 13.2475C219.301 13.4855 219.139 13.6854 218.93 13.8377C218.539 14.1424 218.016 14.2947 217.359 14.2947H215.379V7.82129H217.131C218.073 7.82129 218.692 8.10688 218.977 8.6971C219.073 8.90654 219.13 9.11597 219.13 9.33492C219.13 9.54436 219.111 9.71571 219.073 9.83947C219.034 9.96322 218.987 10.087 218.92 10.2012C218.777 10.4487 218.587 10.6201 218.368 10.7153C218.739 10.82 219.044 11.0294 219.272 11.3341C219.491 11.6387 219.606 12.029 219.606 12.4859ZM218.454 9.43964C218.454 8.78278 218.016 8.45911 217.121 8.45911H216.036V10.4773H217.311C217.654 10.4773 217.93 10.3916 218.14 10.2203C218.349 10.0489 218.454 9.78235 218.454 9.43964ZM218.93 12.3622C218.93 12.1718 218.901 12.0004 218.825 11.8576C218.749 11.7053 218.654 11.5816 218.539 11.4769C218.282 11.2484 217.987 11.1437 217.645 11.1437H216.036V13.6569H217.54C217.949 13.6569 218.282 13.5331 218.539 13.3046C218.806 13.0571 218.93 12.743 218.93 12.3622Z" fill="#6C5751"/>
<path d="M209.428 12.1459C209.428 12.8504 209.19 13.4025 208.733 13.8024C208.305 14.1831 207.734 14.3735 207.02 14.3735C206.296 14.3735 205.715 14.1831 205.287 13.8024C204.83 13.4025 204.602 12.8504 204.602 12.1459V7.81445H205.268V12.2411C205.268 12.7361 205.439 13.1074 205.792 13.3644C206.096 13.5929 206.506 13.7072 207.02 13.7072C207.81 13.7072 208.343 13.4406 208.619 12.9075C208.714 12.7266 208.762 12.5077 208.762 12.2411V7.81445H209.428V12.1459Z" fill="#6C5751"/>
<path d="M196.86 13.6215H199.173V14.2879H196.86H196.527H196.193V7.81445H196.86V13.6215Z" fill="#6C5751"/>
<path d="M190.535 12.3075C190.288 12.9358 189.898 13.4308 189.355 13.8116C188.793 14.1924 188.194 14.3828 187.537 14.3828C186.632 14.3828 185.871 14.0591 185.242 13.3927C184.614 12.7454 184.31 11.9743 184.31 11.0604C184.31 10.613 184.386 10.1846 184.557 9.78477C184.719 9.38495 184.947 9.0232 185.242 8.71857C185.871 8.06171 186.632 7.72852 187.537 7.72852C188.194 7.72852 188.793 7.91891 189.345 8.2997C189.888 8.68049 190.278 9.17551 190.526 9.78477H189.793C189.441 9.14695 188.917 8.72809 188.222 8.51865C187.994 8.45201 187.737 8.41393 187.442 8.41393C187.137 8.41393 186.832 8.49009 186.528 8.63289C186.214 8.77568 185.937 8.96608 185.709 9.20407C185.214 9.71814 184.976 10.3369 184.976 11.0604C184.976 11.7839 185.214 12.4027 185.709 12.9072C186.214 13.4403 186.823 13.6974 187.537 13.6974C188.013 13.6974 188.46 13.5736 188.86 13.3166C189.26 13.0691 189.574 12.7264 189.802 12.3075H190.535Z" fill="#6C5751"/>
<path d="M169.024 11.241C167.71 10.9364 167.043 10.3652 167.043 9.53702C167.043 8.92775 167.262 8.48033 167.681 8.1757C168.11 7.87107 168.614 7.71875 169.185 7.71875C170.442 7.71875 171.194 8.19474 171.432 9.12767H170.709C170.575 8.57552 170.071 8.28993 169.185 8.28993C168.557 8.28993 168.119 8.48033 167.872 8.8516C167.776 8.98487 167.738 9.16575 167.738 9.37518C167.729 9.77501 167.948 10.0796 168.386 10.2986C168.586 10.4033 169.014 10.5461 169.68 10.7175C170.337 10.8888 170.813 11.0792 171.108 11.2886C171.527 11.5742 171.737 11.9836 171.737 12.5167C171.737 13.164 171.47 13.6591 170.956 13.9922C170.528 14.2778 169.995 14.4111 169.357 14.4111C167.929 14.4111 167.101 13.8685 166.872 12.7737H167.653C167.776 13.4591 168.348 13.8018 169.357 13.8018C170.08 13.8018 170.594 13.6019 170.88 13.2021C170.994 13.0498 171.051 12.8308 171.051 12.5643C171.051 12.2977 170.947 12.0788 170.737 11.9074C170.432 11.6599 169.861 11.441 169.024 11.241Z" fill="#6C5751"/>
<path d="M158.892 11.241C157.578 10.9364 156.912 10.3652 156.912 9.53702C156.912 8.92775 157.131 8.48033 157.549 8.1757C157.978 7.87107 158.482 7.71875 159.054 7.71875C160.31 7.71875 161.062 8.19474 161.3 9.12767H160.577C160.443 8.57552 159.939 8.28993 159.054 8.28993C158.425 8.28993 157.987 8.48033 157.74 8.8516C157.645 8.98487 157.607 9.16575 157.607 9.37518C157.597 9.77501 157.816 10.0796 158.254 10.2986C158.454 10.4033 158.882 10.5461 159.549 10.7175C160.205 10.8888 160.681 11.0792 160.977 11.2886C161.395 11.5742 161.605 11.9836 161.605 12.5167C161.605 13.164 161.338 13.6591 160.824 13.9922C160.396 14.2778 159.863 14.4111 159.225 14.4111C157.797 14.4111 156.969 13.8685 156.74 12.7737H157.521C157.645 13.4591 158.216 13.8018 159.225 13.8018C159.948 13.8018 160.462 13.6019 160.748 13.2021C160.862 13.0498 160.919 12.8308 160.919 12.5643C160.919 12.2977 160.815 12.0788 160.605 11.9074C160.301 11.6599 159.729 11.441 158.892 11.241Z" fill="#6C5751"/>
<path d="M151.012 14.2879H147.166V7.81445H151.012V8.43323H147.832V10.737H150.917V11.3653H147.832V13.6691H151.012V14.2879Z" fill="#6C5751"/>
<path d="M137.442 9.5167V14.2861H136.775V7.40332L140.412 12.5725V7.81267H141.078V14.6859L137.442 9.5167Z" fill="#6C5751"/>
<path d="M128.891 13.6215H131.204V14.2879H128.891H128.558H128.225V7.81445H128.891V13.6215Z" fill="#6C5751"/>
<path d="M120.339 13.6215H122.653V14.2879H120.339H120.006H119.673V7.81445H120.339V13.6215Z" fill="#6C5751"/>
<path d="M113.582 14.2879H109.736V7.81445H113.582V8.43323H110.403V10.737H113.487V11.3653H110.403V13.6691H113.582V14.2879Z" fill="#6C5751"/>
<path d="M102.758 14.8084L100.636 9.17277L98.5127 14.8084L96.999 7.81145H97.6844L98.684 12.5142L100.636 7.43066L102.578 12.5142L103.587 7.81145H104.263L102.758 14.8084Z" fill="#6C5751"/>
</svg>
