<svg width="220" height="15" viewBox="0 0 220 15" fill="none" xmlns="http://www.w3.org/2000/svg">
<path d="M5.11961 0H6.89695L12.0166 14.8083H10.1568L8.84335 10.8504H3.1732L1.8597 14.8083H0L5.11961 0ZM8.24946 9.0731L6.00828 2.41025L3.76709 9.0731H8.24946Z" fill="#FFFCF8"/>
<path d="M74.102 0H75.8794L80.999 14.8083H79.1393L77.8258 10.8504H72.1556L70.8421 14.8083H68.9824L74.102 0ZM77.2319 9.0731L74.9907 2.41025L72.7495 9.0731H77.2319Z" fill="#FFFCF8"/>
<path d="M28.1942 8.41852L32.5335 0H30.4831L27.2665 6.55882L24.05 0H21.9995L26.3345 8.41852V13.1523H24.6872V14.8083H29.8675V13.1523H28.1942V8.41852Z" fill="#FFFCF8"/>
<path d="M55.7738 0.00878906L51.5212 11.7869H51.4519L47.1993 0.00878906H44.3945V14.8084H46.2542V2.63578H46.2932L50.832 14.7087H52.1411L56.6798 2.63578H56.7232V14.8084H58.5829V0.00878906H55.7738Z" fill="#FFFCF8"/>
<path d="M219.606 12.4869C219.606 12.7535 219.54 13.001 219.416 13.2485C219.302 13.4865 219.14 13.6864 218.93 13.8387C218.54 14.1434 218.016 14.2957 217.359 14.2957H215.379V7.82227H217.131C218.073 7.82227 218.692 8.10786 218.978 8.69808C219.073 8.90751 219.13 9.11695 219.13 9.3359C219.13 9.54533 219.111 9.71669 219.073 9.84045C219.035 9.9642 218.987 10.088 218.921 10.2022C218.778 10.4497 218.588 10.6211 218.369 10.7163C218.74 10.821 219.044 11.0304 219.273 11.335C219.492 11.6397 219.606 12.03 219.606 12.4869ZM218.454 9.44062C218.454 8.78376 218.016 8.46009 217.122 8.46009H216.036V10.4783H217.312C217.655 10.4783 217.931 10.3926 218.14 10.2212C218.35 10.0499 218.454 9.78333 218.454 9.44062ZM218.93 12.3632C218.93 12.1728 218.902 12.0014 218.826 11.8586C218.749 11.7063 218.654 11.5826 218.54 11.4778C218.283 11.2494 217.988 11.1446 217.645 11.1446H216.036V13.6579H217.54C217.95 13.6579 218.283 13.5341 218.54 13.3056C218.806 13.0581 218.93 12.744 218.93 12.3632Z" fill="#FFFCF8"/>
<path d="M209.428 12.1464C209.428 12.8509 209.19 13.403 208.733 13.8028C208.305 14.1836 207.734 14.374 207.02 14.374C206.296 14.374 205.715 14.1836 205.287 13.8028C204.83 13.403 204.602 12.8509 204.602 12.1464V7.81494H205.268V12.2416C205.268 12.7366 205.439 13.1079 205.792 13.3649C206.096 13.5934 206.506 13.7076 207.02 13.7076C207.81 13.7076 208.343 13.4411 208.619 12.908C208.714 12.7271 208.762 12.5082 208.762 12.2416V7.81494H209.428V12.1464Z" fill="#FFFCF8"/>
<path d="M196.86 13.622H199.173V14.2883H196.86H196.527H196.194V7.81494H196.86V13.622Z" fill="#FFFCF8"/>
<path d="M190.536 12.3075C190.288 12.9358 189.898 13.4308 189.355 13.8116C188.794 14.1924 188.194 14.3828 187.537 14.3828C186.633 14.3828 185.871 14.0591 185.243 13.3927C184.614 12.7454 184.31 11.9743 184.31 11.0604C184.31 10.613 184.386 10.1846 184.557 9.78477C184.719 9.38495 184.948 9.0232 185.243 8.71857C185.871 8.06171 186.633 7.72852 187.537 7.72852C188.194 7.72852 188.794 7.91891 189.346 8.2997C189.888 8.68049 190.279 9.17551 190.526 9.78477H189.793C189.441 9.14695 188.917 8.72809 188.222 8.51865C187.994 8.45201 187.737 8.41393 187.442 8.41393C187.137 8.41393 186.833 8.49009 186.528 8.63289C186.214 8.77568 185.938 8.96608 185.709 9.20407C185.214 9.71814 184.976 10.3369 184.976 11.0604C184.976 11.7839 185.214 12.4027 185.709 12.9072C186.214 13.4403 186.823 13.6974 187.537 13.6974C188.013 13.6974 188.46 13.5736 188.86 13.3166C189.26 13.0691 189.574 12.7264 189.803 12.3075H190.536Z" fill="#FFFCF8"/>
<path d="M169.024 11.241C167.71 10.9364 167.043 10.3652 167.043 9.53702C167.043 8.92775 167.262 8.48033 167.681 8.1757C168.11 7.87107 168.614 7.71875 169.185 7.71875C170.442 7.71875 171.194 8.19474 171.432 9.12767H170.709C170.575 8.57552 170.071 8.28993 169.185 8.28993C168.557 8.28993 168.119 8.48033 167.872 8.8516C167.776 8.98487 167.738 9.16575 167.738 9.37518C167.729 9.77501 167.948 10.0796 168.386 10.2986C168.586 10.4033 169.014 10.5461 169.68 10.7175C170.337 10.8888 170.813 11.0792 171.108 11.2886C171.527 11.5742 171.737 11.9836 171.737 12.5167C171.737 13.164 171.47 13.6591 170.956 13.9922C170.528 14.2778 169.995 14.4111 169.357 14.4111C167.929 14.4111 167.101 13.8685 166.872 12.7737H167.653C167.776 13.4591 168.348 13.8018 169.357 13.8018C170.08 13.8018 170.594 13.6019 170.88 13.2021C170.994 13.0498 171.051 12.8308 171.051 12.5643C171.051 12.2977 170.947 12.0788 170.737 11.9074C170.432 11.6599 169.861 11.441 169.024 11.241Z" fill="#FFFCF8"/>
<path d="M158.892 11.241C157.578 10.9364 156.912 10.3652 156.912 9.53702C156.912 8.92775 157.131 8.48033 157.55 8.1757C157.978 7.87107 158.483 7.71875 159.054 7.71875C160.31 7.71875 161.062 8.19474 161.3 9.12767H160.577C160.444 8.57552 159.939 8.28993 159.054 8.28993C158.425 8.28993 157.988 8.48033 157.74 8.8516C157.645 8.98487 157.607 9.16575 157.607 9.37518C157.597 9.77501 157.816 10.0796 158.254 10.2986C158.454 10.4033 158.882 10.5461 159.549 10.7175C160.206 10.8888 160.682 11.0792 160.977 11.2886C161.396 11.5742 161.605 11.9836 161.605 12.5167C161.605 13.164 161.338 13.6591 160.824 13.9922C160.396 14.2778 159.863 14.4111 159.225 14.4111C157.797 14.4111 156.969 13.8685 156.74 12.7737H157.521C157.645 13.4591 158.216 13.8018 159.225 13.8018C159.949 13.8018 160.463 13.6019 160.748 13.2021C160.863 13.0498 160.92 12.8308 160.92 12.5643C160.92 12.2977 160.815 12.0788 160.605 11.9074C160.301 11.6599 159.73 11.441 158.892 11.241Z" fill="#FFFCF8"/>
<path d="M151.012 14.2883H147.166V7.81494H151.012V8.43372H147.832V10.7375H150.917V11.3658H147.832V13.6696H151.012V14.2883Z" fill="#FFFCF8"/>
<path d="M137.442 9.51718V14.2866H136.776V7.40381L140.412 12.573V7.81316H141.079V14.6864L137.442 9.51718Z" fill="#FFFCF8"/>
<path d="M128.891 13.622H131.205V14.2883H128.891H128.558H128.225V7.81494H128.891V13.622Z" fill="#FFFCF8"/>
<path d="M120.339 13.622H122.653V14.2883H120.339H120.006H119.673V7.81494H120.339V13.622Z" fill="#FFFCF8"/>
<path d="M113.583 14.2883H109.737V7.81494H113.583V8.43372H110.403V10.7375H113.487V11.3658H110.403V13.6696H113.583V14.2883Z" fill="#FFFCF8"/>
<path d="M102.758 14.8084L100.636 9.17277L98.5127 14.8084L96.999 7.81145H97.6844L98.684 12.5142L100.636 7.43066L102.578 12.5142L103.587 7.81145H104.263L102.758 14.8084Z" fill="#FFFCF8"/>
</svg>
