<svg width="1010" height="1253" viewBox="0 0 1010 1253" fill="none" xmlns="http://www.w3.org/2000/svg">
<path d="M286.678 256.055C214.654 334.209 265.008 453.644 299.189 503.592L330.098 533.217C354.825 564.361 331.243 582.757 316.36 588.062C272.401 592.176 236.932 650.008 234.426 685.02C231.286 728.896 199.919 818.215 184.628 857.39C150.873 941.028 183.32 970.752 203.762 975.159C242.62 975.159 259.203 944.309 262.637 928.884C303.653 870.317 309.492 809.972 307.284 787.12C313.76 721.11 338.193 712.198 348.742 692.365C368.17 664.16 385.947 670.003 392.407 676.451C400.65 687.615 395.842 699.384 392.407 703.873C364.54 724.048 361.988 788.017 364.196 817.48C364.196 855.284 336.721 899.503 322.984 916.887C290.014 963.505 298.78 993.114 307.284 1002.09C330.343 1021.19 380.141 988.849 394.615 977.608C445.051 938.433 447.275 888.485 443.187 869.632C430.627 820.467 454.798 776.51 468.454 760.677C501.424 672.337 487.425 616.627 476.304 599.815C447.259 574.547 452.59 535.747 458.887 519.506C484.203 379.456 448.338 292.863 427.241 267.073C419.588 255.712 400.83 262.339 392.407 267.073C364.54 287.248 380.796 336.527 392.407 358.644C406.145 381.366 405.654 430.139 403.691 451.685C389.954 470.685 371.637 459.601 364.196 451.685C328.871 403.891 338.847 327.631 348.251 295.475C354.531 241.218 309.819 246.588 286.678 256.055Z" fill="#66A5A2"/>
<path d="M528.048 253.734C493.782 258.829 483.991 294.393 483.991 320.846C485.704 349.504 497.29 370.324 507.244 378.896C524.083 392.416 528.13 423.719 528.048 437.681C508.663 498.229 528.619 519.407 541.02 522.428C579.007 524.976 584.261 552.555 582.14 566.027C577.636 584.642 560.356 595.338 552.279 598.358C513.509 606.196 515.239 669.39 520.95 700.007C532.503 728.419 525.764 781.734 520.95 804.839C505.481 880.867 529.002 939.799 542.977 965.272C563.537 1002.75 599.436 1011.81 619.343 1002.75C653.609 979.625 633.62 928.45 619.343 905.753C592.321 853.434 586.789 820.515 594.377 795.287C615.72 749.435 603.27 708.416 594.377 693.638C582.825 665.226 599.191 651.591 608.818 648.325C649.546 640.487 663.165 695.598 658.749 729.154C653.462 769.323 660.952 866.4 665.357 909.917C669.028 985.357 704.273 1001.03 733.889 993.685C781.666 974.286 775.825 920.612 766.932 896.2C754.792 852.896 739.845 753.893 733.889 709.804C730.757 629.073 671.721 580.315 642.595 566.027C625.168 553.682 635.334 542.595 642.595 538.594C685.672 523.702 707.864 485.035 713.575 467.563C746.47 362.926 714.88 291.699 694.973 269.165C671.085 253.097 650.101 268.348 642.595 277.982C621.252 306.983 641.86 349.83 654.833 367.629C670.986 398.736 649.366 440.783 642.595 455.561C618.706 487.892 585.776 467.318 588.748 450.662C596.58 406.77 592.011 347.953 588.748 324.031C577.195 258.78 543.468 249.979 528.048 253.734Z" fill="#66A5A2"/>
<path d="M262.067 69.512C67.6673 107.112 51.5675 308.512 40.0673 471.012C40.0671 924.012 15.0687 1035.48 138.569 1144.51C221.069 1217.35 768.429 1271.51 882.569 1106.01C978.432 967.012 980.568 735.678 962.068 582.012C948.468 353.212 856.734 179.345 812.568 121.012C720.168 1.41196 407.067 36.8453 262.067 69.512Z" stroke="#66A5A2" stroke-width="76"/>
</svg>
