<svg width="18" height="18" viewBox="0 0 18 18" fill="none" xmlns="http://www.w3.org/2000/svg">
<path d="M8.8582 0.00122224C11.0498 -0.0348915 13.1794 0.73037 14.847 2.15278C16.5147 3.57522 17.6061 5.55778 17.9162 7.72767C18.2261 9.89738 17.7335 12.1056 16.531 13.938C15.3284 15.7706 13.4982 17.1013 11.3842 17.6804C9.36772 18.2327 7.22602 18.0633 5.32413 17.2102L1.05792 17.9713C0.731638 18.0294 0.399578 17.9034 0.193962 17.6435C-0.0116294 17.3833 -0.0576362 17.0309 0.0744312 16.7268L1.36466 13.7526C0.303443 12.0461 -0.159244 10.0286 0.0603687 8.02122C0.298821 5.84244 1.32423 3.82531 2.94405 2.34877C4.5639 0.872366 6.66676 0.0373607 8.8582 0.00122224ZM8.88808 1.80122C7.13478 1.83011 5.452 2.49814 4.15606 3.67944C2.86025 4.8607 2.03964 6.47418 1.84894 8.21722C1.65824 9.96036 2.11085 11.7134 3.12071 13.147C3.30127 13.4035 3.33518 13.7355 3.21036 14.0233L2.39298 15.9041L5.28721 15.3891L5.42871 15.375C5.57042 15.3725 5.71151 15.4036 5.84004 15.4664C7.41491 16.2375 9.21748 16.4078 10.9087 15.9445C12.5999 15.4813 14.0643 14.417 15.0263 12.951C15.9884 11.485 16.3818 9.71758 16.1338 7.98167C15.8857 6.24588 15.0131 4.66 13.679 3.52211C12.3449 2.38425 10.6413 1.77235 8.88808 1.80122Z" fill="#FFFCF8"/>
<path d="M8.10038 7.18554C8.10038 7.54358 7.95805 7.88686 7.70488 8.14003C7.61415 8.23076 7.5112 8.306 7.40078 8.36679C7.57751 8.87541 7.8671 9.34288 8.25507 9.73085C8.64277 10.1186 9.11004 10.4075 9.61825 10.5843C9.67902 10.474 9.75524 10.3717 9.84589 10.281L9.9452 10.1914C10.1854 9.99465 10.4872 9.88553 10.8004 9.88553H11.7004C12.0136 9.88553 12.3153 9.99465 12.5555 10.1914L12.6549 10.281L12.7445 10.3804C12.9413 10.6206 13.0504 10.9223 13.0504 11.2355C13.0504 11.5936 12.908 11.9368 12.6549 12.19C12.4017 12.4432 12.0584 12.5855 11.7004 12.5855H10.8004C9.36821 12.5855 7.99511 12.0162 6.98242 11.0035C5.96972 9.99081 5.40039 8.61771 5.40039 7.18554V6.28554C5.40039 5.9275 5.54272 5.58423 5.7959 5.33105C6.04907 5.07788 6.39235 4.93555 6.75039 4.93555C7.10843 4.93555 7.4517 5.07788 7.70488 5.33105C7.95805 5.58423 8.10038 5.9275 8.10038 6.28554V7.18554Z" fill="#FFFCF8"/>
</svg>
