<svg width="32" height="32" viewBox="0 0 32 32" fill="none" xmlns="http://www.w3.org/2000/svg">
<path fill-rule="evenodd" clip-rule="evenodd" d="M0 16C0 7.16344 7.16344 0 16 0C24.8366 0 32 7.16344 32 16C32 24.8366 24.8366 32 16 32C7.16344 32 0 24.8366 0 16Z" fill="#FFFCF8"/>
<path d="M15.8582 7.00122C18.0498 6.96511 20.1794 7.73037 21.847 9.15278C23.5147 10.5752 24.6061 12.5578 24.9162 14.7277C25.2261 16.8974 24.7335 19.1056 23.531 20.938C22.3284 22.7706 20.4982 24.1013 18.3842 24.6804C16.3677 25.2327 14.226 25.0633 12.3241 24.2102L8.05792 24.9713C7.73164 25.0294 7.39958 24.9034 7.19396 24.6435C6.98837 24.3833 6.94236 24.0309 7.07443 23.7268L8.36466 20.7526C7.30344 19.0461 6.84076 17.0286 7.06037 15.0212C7.29882 12.8424 8.32423 10.8253 9.94405 9.34877C11.5639 7.87237 13.6668 7.03736 15.8582 7.00122ZM15.8881 8.80122C14.1348 8.83011 12.452 9.49814 11.1561 10.6794C9.86025 11.8607 9.03964 13.4742 8.84894 15.2172C8.65824 16.9604 9.11085 18.7134 10.1207 20.147C10.3013 20.4035 10.3352 20.7355 10.2104 21.0233L9.39298 22.9041L12.2872 22.3891L12.4287 22.375C12.5704 22.3725 12.7115 22.4036 12.84 22.4664C14.4149 23.2375 16.2175 23.4078 17.9087 22.9445C19.5999 22.4813 21.0643 21.417 22.0263 19.951C22.9884 18.485 23.3818 16.7176 23.1338 14.9817C22.8857 13.2459 22.0131 11.66 20.679 10.5221C19.3449 9.38425 17.6413 8.77235 15.8881 8.80122Z" fill="#6C5751"/>
<path d="M15.1004 14.1855C15.1004 14.5436 14.9581 14.8869 14.7049 15.14C14.6141 15.2308 14.5112 15.306 14.4008 15.3668C14.5775 15.8754 14.8671 16.3429 15.2551 16.7308C15.6428 17.1186 16.11 17.4075 16.6183 17.5843C16.679 17.474 16.7552 17.3717 16.8459 17.281L16.9452 17.1914C17.1854 16.9947 17.4872 16.8855 17.8004 16.8855H18.7004C19.0136 16.8855 19.3153 16.9947 19.5555 17.1914L19.6549 17.281L19.7445 17.3804C19.9413 17.6206 20.0504 17.9223 20.0504 18.2355C20.0504 18.5936 19.908 18.9368 19.6549 19.19C19.4017 19.4432 19.0584 19.5855 18.7004 19.5855H17.8004C16.3682 19.5855 14.9951 19.0162 13.9824 18.0035C12.9697 16.9908 12.4004 15.6177 12.4004 14.1855V13.2855C12.4004 12.9275 12.5427 12.5842 12.7959 12.3311C13.0491 12.0779 13.3923 11.9355 13.7504 11.9355C14.1084 11.9355 14.4517 12.0779 14.7049 12.3311C14.9581 12.5842 15.1004 12.9275 15.1004 13.2855V14.1855Z" fill="#6C5751"/>
</svg>
