<svg width="49" height="60" viewBox="0 0 49 60" fill="none" xmlns="http://www.w3.org/2000/svg">
<path d="M15.2715 12.2858C11.8254 16.0252 14.2347 21.7397 15.8701 24.1295L17.349 25.5469C18.5321 27.0371 17.4037 27.9172 16.6917 28.1711C14.5884 28.3679 12.8913 31.1349 12.7714 32.8101C12.6212 34.9094 11.1204 39.1829 10.3888 41.0573C8.77376 45.0591 10.3262 46.4813 11.3043 46.6921C13.1635 46.6921 13.9569 45.2161 14.1212 44.478C16.0837 41.6759 16.363 38.7885 16.2574 37.6952C16.5673 34.5369 17.7363 34.1104 18.241 33.1615C19.1706 31.812 20.0211 32.0916 20.3302 32.4001C20.7246 32.9343 20.4945 33.4974 20.3302 33.7121C18.9969 34.6774 18.8748 37.7381 18.9804 39.1478C18.9804 40.9566 17.6659 43.0723 17.0086 43.904C15.4311 46.1345 15.8505 47.5512 16.2574 47.9807C17.3607 48.8945 19.7433 47.3471 20.4358 46.8093C22.849 44.9349 22.9554 42.5451 22.7598 41.6431C22.1589 39.2907 23.3154 37.1875 23.9687 36.43C25.5462 32.2033 24.8764 29.5378 24.3443 28.7334C22.9547 27.5244 23.2097 25.668 23.511 24.8909C24.7223 18.1901 23.0063 14.0469 21.9969 12.813C21.6307 12.2694 20.7332 12.5865 20.3302 12.813C18.9969 13.7783 19.7746 16.1361 20.3302 17.1943C20.9875 18.2814 20.964 20.615 20.8701 21.6459C20.2128 22.555 19.3365 22.0247 18.9804 21.6459C17.2903 19.3592 17.7676 15.7104 18.2175 14.1719C18.518 11.5759 16.3787 11.8329 15.2715 12.2858Z" fill="#6C5751"/>
<path d="M26.8201 12.1748C25.1806 12.4185 24.7122 14.1201 24.7122 15.3858C24.7941 16.757 25.3485 17.7531 25.8247 18.1633C26.6304 18.8102 26.824 20.3079 26.8201 20.9759C25.8926 23.8729 26.8474 24.8862 27.4408 25.0307C29.2583 25.1526 29.5097 26.4722 29.4082 27.1168C29.1927 28.0074 28.3659 28.5192 27.9795 28.6637C26.1245 29.0387 26.2072 32.0623 26.4805 33.5272C27.0332 34.8866 26.7108 37.4375 26.4805 38.543C25.7404 42.1806 26.8658 45.0003 27.5344 46.2191C28.5181 48.0121 30.2357 48.4457 31.1882 48.0121C32.8277 46.9058 31.8713 44.4573 31.1882 43.3713C29.8953 40.8681 29.6306 39.293 29.9937 38.0859C31.0149 35.8921 30.4192 33.9295 29.9937 33.2225C29.441 31.863 30.224 31.2107 30.6846 31.0544C32.6333 30.6794 33.2849 33.3162 33.0736 34.9218C32.8207 36.8437 33.179 41.4884 33.3898 43.5705C33.5654 47.1801 35.2518 47.9301 36.6688 47.5785C38.9547 46.6503 38.6752 44.0823 38.2498 42.9143C37.6689 40.8423 36.9538 36.1054 36.6688 33.9959C36.5189 30.1333 33.6943 27.8004 32.3007 27.1168C31.4669 26.5261 31.9533 25.9956 32.3007 25.8042C34.3618 25.0917 35.4236 23.2416 35.6968 22.4056C37.2707 17.3992 35.7593 13.9912 34.8068 12.9131C33.6638 12.1443 32.6598 12.874 32.3007 13.335C31.2795 14.7225 32.2656 16.7726 32.8863 17.6242C33.6591 19.1125 32.6247 21.1243 32.3007 21.8314C31.1578 23.3783 29.5822 22.3939 29.7244 21.597C30.0991 19.4969 29.8805 16.6828 29.7244 15.5382C29.1716 12.4162 27.5579 11.9951 26.8201 12.1748Z" fill="#6C5751"/>
<path d="M12.1696 1.54811C15.7424 0.744718 21.36 -0.0912834 26.6968 0.00806565C29.3711 0.0578494 32.0503 0.343345 34.3952 1.02636C36.704 1.69888 38.8656 2.80899 40.2994 4.63978L40.3386 4.69016L40.3439 4.69722C42.6566 7.75368 47.177 16.3988 47.862 27.713C48.3124 31.4857 48.5124 36.2149 48.0082 40.8831C47.5046 45.5455 46.2805 50.3226 43.7417 54.006C41.9904 56.547 38.7829 58.0131 35.3691 58.8618C31.8823 59.7287 27.8052 60.0433 23.8486 59.9953C19.883 59.9472 15.9565 59.5335 12.7434 58.9007C11.138 58.5845 9.67967 58.2076 8.46842 57.7809C7.30546 57.3711 6.19239 56.8556 5.42883 56.1811C3.8013 54.7434 2.59367 53.2324 1.74788 51.3812C0.912187 49.5522 0.477639 47.4948 0.247505 45.0356C-0.202765 40.2239 0.0989494 33.2669 0.0989546 22.5592V22.4949L0.103489 22.4307C0.374704 18.596 0.710655 13.9483 2.25617 10.0324C3.85206 5.98887 6.79331 2.59871 12.1696 1.54811ZM26.6292 3.64745C21.6446 3.55466 16.3126 4.34535 12.9437 5.1048L12.9166 5.11088L12.8893 5.11616C8.97899 5.87296 6.89007 8.20127 5.63964 11.3695C4.34296 14.6549 4.01493 18.6959 3.73667 22.6243C3.7355 33.574 3.44098 40.1178 3.86942 44.6962C4.07907 46.9365 4.45376 48.549 5.05629 49.8677C5.6487 51.1643 6.50826 52.279 7.8364 53.4523C8.06007 53.6499 8.62959 53.9785 9.6766 54.3474C10.6753 54.6993 11.9544 55.0354 13.4459 55.3292C16.4266 55.9162 20.1318 56.3099 23.8927 56.3555C27.6625 56.4013 31.4065 56.0962 34.492 55.3291C37.6506 54.5439 39.7668 53.3618 40.7471 51.9394C42.7969 48.9654 43.9182 44.8739 44.3915 40.492C44.8617 36.1387 44.6743 31.6714 44.2438 28.0931L44.2373 28.0385L44.234 27.9836C43.6064 17.418 39.3636 9.43643 37.4492 6.9019C36.6706 5.89753 35.3178 5.08621 33.3784 4.52131C31.4525 3.96034 29.122 3.69386 26.6292 3.64745Z" fill="#6C5751"/>
</svg>
