<svg width="1436" height="770" viewBox="0 0 1436 770" fill="none" xmlns="http://www.w3.org/2000/svg">
<path d="M14.5719 452.007C-40.624 591.82 71.7724 705.766 171.176 763.157C282.577 818.892 385.946 820.524 439.753 801.72C527.091 767.776 653.496 820.481 705.781 851.077C891.245 1055.28 1014.12 1026.24 1052.38 986.191C1144.36 848.977 1259.39 889.068 1305.41 926.265C1365.59 983.573 1368.29 1071.71 1362.12 1108.61C1307.47 1271.3 1548.68 1401.9 1676.12 1446.86C1807.94 1465.09 1993.66 1606.08 2070.04 1674.29C2322.17 1897.36 2594.64 1936.83 2720.68 1939.58C2906.11 1943.63 3018.04 1828.39 3027.18 1733.93C3014.63 1555 2778.97 1519.09 2662.7 1523.5C2407.49 1511.53 2271.78 1460.9 2193.45 1377.66C2067.45 1197.98 1886.31 1155.77 1811.49 1157.13C1679.66 1138.9 1663.93 1047.82 1672.54 1004.56C1731.45 834.515 1968.08 902.9 2084.59 992.295C2224.07 1099.31 2605.1 1281.77 2778.18 1359.63C3069.62 1509.5 3204.99 1411.07 3241.63 1283.84C3272.39 1062.22 3058.02 967.729 2947 948.184C2757.94 899.853 2353.49 741.232 2174.9 667.962C1864.74 504.59 1553.45 620.645 1436.57 699.094C1352.38 737.796 1332.77 675.543 1333.49 639.579C1370.98 445.4 1273.83 278.124 1220.57 218.759C898.743 -131.859 562.56 -167.681 434.697 -141.765C322.494 -86.8589 334.279 25.0792 354.197 74.185C416.867 217.301 622.584 232.817 717.608 222.686C869.541 229.474 980.637 401.933 1021.48 459.439C1091.14 619.347 942.388 698.452 886.249 651.15C738.308 526.495 507.381 416.06 410.411 376.424C140.157 278.274 33.9123 385.917 14.5719 452.007Z" fill="#FFFCF8"/>
</svg>
