<svg width="77" height="97" viewBox="0 0 77 97" fill="none" xmlns="http://www.w3.org/2000/svg">
<path d="M14.9002 0.774902C5.70321 10.7761 12.1332 26.06 16.4978 32.4517L20.4447 36.2429C23.6023 40.2283 20.5909 42.5824 18.6906 43.2613C13.0771 43.7877 8.54797 51.1883 8.22801 55.6688C7.82705 61.2835 3.82164 72.7135 1.86905 77.7266C-2.44126 88.4297 1.70199 92.2334 4.3124 92.7974C9.27428 92.7974 11.3918 88.8496 11.8304 86.8756C17.0679 79.381 17.8135 71.6587 17.5315 68.7343C18.3585 60.2872 21.4785 59.1467 22.8255 56.6088C25.3064 52.9993 27.5764 53.7471 28.4013 54.5722C29.4538 56.0009 28.8399 57.507 28.4013 58.0814C24.8428 60.6632 24.517 68.8492 24.7989 72.6195C24.7989 77.4572 21.2905 83.1158 19.5363 85.3404C15.3263 91.306 16.4456 95.0951 17.5315 96.244C20.4761 98.6879 26.835 94.5493 28.6832 93.1107C35.1236 88.0976 35.4077 81.7058 34.8856 79.2933C33.2817 73.0018 36.3683 67.3766 38.1121 65.3504C42.3221 54.0458 40.5345 46.9167 39.1145 44.7652C35.4056 41.5317 36.0864 36.5666 36.8904 34.4883C40.1231 16.5663 35.5434 5.48513 32.8495 2.18481C31.8721 0.730994 29.4768 1.57905 28.4013 2.18481C24.8428 4.76658 26.9186 11.0727 28.4013 13.903C30.1555 16.8107 30.0929 23.052 29.8423 25.8093C28.0881 28.2406 25.7491 26.8223 24.7989 25.8093C20.2881 19.6932 21.562 9.93432 22.7628 5.81938C23.5647 -1.12383 17.8552 -0.436608 14.9002 0.774902Z" fill="#CFC4BC"/>
<path d="M45.7213 0.477749C41.3457 1.1297 40.0955 5.68075 40.0955 9.06596C40.3142 12.7332 41.7937 15.3975 43.0647 16.4945C45.215 18.2247 45.7317 22.2304 45.7213 24.0171C43.2459 31.7653 45.7942 34.4755 47.3777 34.8621C52.2284 35.1881 52.8993 38.7174 52.6285 40.4413C52.0534 42.8235 49.8468 44.1922 48.8154 44.5787C43.8648 45.5817 44.0856 53.6685 44.8149 57.5865C46.2901 61.2224 45.4296 68.0449 44.8149 71.0017C42.8396 80.7309 45.8431 88.2723 47.6277 91.5321C50.253 96.3277 54.8371 97.4874 57.3791 96.3277C61.7547 93.3688 59.2023 86.82 57.3791 83.9155C53.9286 77.2204 53.2222 73.0077 54.1912 69.7793C56.9166 63.9117 55.3268 58.6626 54.1912 56.7715C52.716 53.1356 54.8058 51.3908 56.0352 50.9729C61.2359 49.9699 62.975 57.0223 62.4111 61.3164C61.736 66.4568 62.6923 78.8795 63.2549 84.4483C63.7236 94.1023 68.2242 96.1083 72.0061 95.168C78.1069 92.6855 77.361 85.817 76.2254 82.693C74.6752 77.1514 72.7666 64.4822 72.0061 58.8403C71.6061 48.5093 64.0675 42.2697 60.3483 40.4413C58.123 38.8616 59.4211 37.4427 60.3483 36.9308C65.849 35.0251 68.6827 30.0769 69.412 27.841C73.6126 14.4509 69.5787 5.33602 67.0367 2.45237C63.9863 0.396204 61.3067 2.34789 60.3483 3.58076C57.6229 7.29189 60.2545 12.775 61.911 15.0527C63.9737 19.0334 61.213 24.4141 60.3483 26.3052C57.2979 30.4426 53.0928 27.8097 53.4723 25.6783C54.4725 20.0614 53.8891 12.5347 53.4723 9.47348C51.9971 1.12344 47.6903 -0.00285935 45.7213 0.477749Z" fill="#CFC4BC"/>
</svg>
