<svg width="88" height="145" viewBox="0 0 88 145" fill="none" xmlns="http://www.w3.org/2000/svg">
<path fill-rule="evenodd" clip-rule="evenodd" d="M43.9227 0.00390625C45.1719 0.0511661 46.9959 0.49084 48.5428 1.68652C50.1535 2.93163 51.3778 4.93664 51.3778 7.86914V7.92285L51.3739 7.97754C50.8665 14.7232 49.9224 27.8741 49.7059 32.9209C53.8867 33.0359 58.0827 33.4045 61.8504 34.1904C65.9521 35.046 70.1476 36.5173 73.0604 39.1807L73.0663 39.1865L73.1336 39.248L73.1454 39.2598L73.1581 39.2715L73.1649 39.2783L73.368 39.4736C77.688 43.67 85.5384 54.6426 86.7791 68.9717C87.5719 73.7751 87.9262 79.8062 87.0213 85.8057C86.1131 91.8277 83.8764 98.2068 79.0819 103.188C75.5318 106.877 69.368 108.77 63.4608 109.821C59.2275 110.575 54.5334 110.995 49.7831 111.166C49.8062 111.479 49.8294 111.722 49.8514 111.889L49.869 112.007L49.8856 112.104L49.8895 112.202C50.0416 116.624 50.5739 127.588 51.4842 136.071L51.492 136.148V136.226C51.492 137.466 51.1393 139.3 50.0536 140.903C48.9239 142.571 47.0362 143.925 44.1805 144.09H44.1747C42.8666 144.16 40.9246 143.864 39.3045 142.674C37.5942 141.417 36.4292 139.298 36.5887 136.152L36.5897 136.146V136.139L38.0956 111.125C32.9856 110.918 28.0718 110.479 23.8456 109.883C21.2097 109.511 18.7673 109.068 16.6727 108.56L16.2586 108.457C14.2212 107.943 12.0125 107.24 10.3807 106.208C7.40807 104.327 5.04642 102.252 3.35825 99.6064C1.68729 96.9873 0.86627 94.1058 0.444187 90.876C0.034948 87.7441 -0.0252425 83.9816 0.00766325 79.4521C0.0410357 74.8594 0.169767 69.5025 0.169773 62.9053V62.7158L0.189304 62.5264C0.648317 57.8786 1.24237 51.6863 4.15805 46.3955C7.27032 40.7484 12.9675 36.1993 22.8329 34.8115C26.7464 34.182 32.056 33.5365 37.7733 33.1738C37.3258 23.4155 36.7142 11.7317 36.2547 8.04785L36.245 7.97266L36.244 7.89746C36.2199 6.66615 36.5702 4.86136 37.6952 3.2666C38.8609 1.61421 40.8001 0.27638 43.7372 0.00878906L43.8299 0L43.9227 0.00390625ZM55.5536 108.573C55.5614 108.573 55.5692 108.572 55.577 108.571C55.5692 108.572 55.5614 108.573 55.5536 108.573ZM57.8963 108.345C57.925 108.342 57.9536 108.338 57.9823 108.335C57.9536 108.338 57.925 108.342 57.8963 108.345ZM59.0272 108.213C59.0715 108.207 59.1158 108.202 59.16 108.196C59.1158 108.202 59.0715 108.207 59.0272 108.213ZM60.2303 108.056C60.2466 108.053 60.2629 108.051 60.2791 108.049C60.2629 108.051 60.2466 108.053 60.2303 108.056ZM61.3114 107.899C61.3615 107.892 61.4117 107.885 61.4618 107.877C61.4117 107.885 61.3615 107.892 61.3114 107.899ZM62.3768 107.729C62.4184 107.723 62.4603 107.717 62.5018 107.71L62.7127 107.673C62.6011 107.692 62.4891 107.711 62.3768 107.729ZM69.202 106.149C69.244 106.136 69.2861 106.124 69.328 106.11C69.2861 106.124 69.244 106.136 69.202 106.149ZM72.9618 104.705C72.981 104.696 73.0002 104.687 73.0194 104.678C73.0002 104.687 72.981 104.696 72.9618 104.705ZM73.3768 104.504C73.4035 104.491 73.4303 104.477 73.4569 104.464C73.4303 104.477 73.4035 104.491 73.3768 104.504ZM58.0829 103.781C55.3862 104.116 52.4894 104.331 49.5057 104.441V104.443C52.4895 104.333 55.3861 104.116 58.0829 103.781ZM9.44419 56.8535C9.0914 58.869 8.87223 60.9405 8.66977 62.9873C8.66776 76.4718 8.16153 84.5307 8.89829 90.1689C9.25879 92.9277 9.90326 94.9132 10.9393 96.5371C11.958 98.1339 13.4357 99.5073 15.7196 100.952C16.1042 101.195 17.0841 101.6 18.8846 102.055C20.602 102.488 22.8015 102.902 25.3661 103.264C29.1493 103.797 33.6116 104.199 38.2899 104.396V104.395C34.0081 104.214 29.9074 103.861 26.3426 103.394L25.367 103.261C22.8023 102.899 20.602 102.485 18.8846 102.052C17.0848 101.598 16.1053 101.194 15.7206 100.95C13.5081 99.5505 12.052 98.2181 11.037 96.6846L10.9403 96.5352C9.96894 95.0127 9.34121 93.1722 8.96958 90.6748L8.89927 90.167C8.16252 84.5288 8.66873 76.4697 8.67075 62.9854C8.87314 60.9392 9.0916 58.8684 9.44419 56.8535ZM58.1444 103.773C58.4733 103.732 58.7992 103.689 59.1219 103.645C58.7992 103.689 58.4733 103.732 58.1444 103.773ZM75.3289 103.384C75.3542 103.367 75.3791 103.35 75.4041 103.333C75.3791 103.35 75.3542 103.367 75.3289 103.384ZM66.744 102.028C65.2554 102.497 63.5242 102.911 61.5584 103.261L61.1532 103.331C61.2885 103.308 61.4236 103.288 61.5575 103.264C63.5239 102.914 65.2551 102.497 66.744 102.028ZM75.6493 103.165C75.6924 103.135 75.7355 103.105 75.7782 103.074C75.7355 103.105 75.6924 103.135 75.6493 103.165ZM76.0467 102.877C76.0652 102.863 76.0841 102.85 76.1024 102.836C76.0841 102.85 76.0652 102.863 76.0467 102.877ZM76.3524 102.641C76.3855 102.614 76.4183 102.587 76.451 102.561C76.4183 102.587 76.3855 102.614 76.3524 102.641ZM76.6737 102.375C76.7164 102.338 76.7586 102.302 76.8006 102.265C76.7587 102.302 76.7164 102.338 76.6737 102.375ZM49.5428 41.8936C49.2443 51.633 48.9034 65.0486 48.9745 71.7451V71.7471C49.0317 77.9382 49.1463 87.3907 49.3036 95.626C49.3479 97.9476 49.3954 100.171 49.4461 102.196C53.6701 102.04 57.6864 101.67 61.1649 101.051C63.7847 100.584 65.9009 100.012 67.5233 99.3779C69.173 98.7327 70.1702 98.0777 70.6971 97.5303C73.7931 94.3135 75.5905 89.7702 76.3622 84.6543C77.1271 79.5823 76.8255 74.3258 76.1141 70.0918V70.0908L76.0877 69.9316L76.0799 69.8398L76.0741 69.7715L76.0223 69.1953C74.8364 57.1594 68.063 48.0721 65.1131 45.2666C64.2209 44.4468 62.3795 43.5559 59.1854 42.8896C56.4503 42.3191 53.1517 42.001 49.5428 41.8936ZM38.1639 42.1504C33.0857 42.4879 28.349 43.0639 24.8612 43.627H24.8592L24.7889 43.6387L24.7186 43.6475V43.6484C18.6269 44.4927 15.6852 46.9861 13.909 50.209C11.952 53.76 11.3983 58.227 10.9149 63.0986C10.9125 69.7894 10.7869 75.21 10.7528 79.5361C10.718 83.9437 10.7788 87.2276 11.1249 89.876C11.4591 92.4335 12.03 94.0713 12.8319 95.3281C13.617 96.5587 14.8111 97.7181 16.9207 99.0527C16.9302 99.0577 17.1025 99.1538 17.5389 99.3125C17.9703 99.4694 18.5905 99.6631 19.4344 99.876L19.743 99.9521C21.3164 100.333 23.3239 100.706 25.6805 101.038C29.373 101.559 33.7432 101.954 38.3338 102.149L38.8758 74.2764C38.8374 65.8225 38.6456 47.8358 38.1952 42.8701L38.1922 42.834L38.1913 42.7979C38.1828 42.5871 38.1729 42.3713 38.1639 42.1504ZM76.9862 102.098C77.0122 102.074 77.0376 102.049 77.0633 102.025C77.0376 102.049 77.0122 102.074 76.9862 102.098ZM77.285 101.812C77.297 101.801 77.3102 101.789 77.3221 101.777L77.4071 101.689C77.3668 101.731 77.3262 101.772 77.285 101.812ZM78.6161 100.343C78.4456 100.548 78.2703 100.751 78.0916 100.952C78.2703 100.751 78.4455 100.548 78.6161 100.343ZM72.3153 99.0869L72.1512 99.25C71.7265 99.6571 71.1932 100.046 70.5555 100.417C71.2773 99.9966 71.8659 99.5548 72.3143 99.0889C72.3905 99.0097 72.4642 98.9281 72.5389 98.8477C72.4646 98.9276 72.391 99.0082 72.3153 99.0869ZM79.5135 99.1875C79.5606 99.1231 79.6078 99.0589 79.6541 98.9941C79.6078 99.0589 79.5606 99.1231 79.5135 99.1875ZM79.8329 98.7412C79.8815 98.6714 79.9296 98.6014 79.9774 98.5312C79.9296 98.6014 79.8815 98.6714 79.8329 98.7412ZM73.7284 97.4346C73.4277 97.8286 73.1133 98.2114 72.7831 98.5811C73.1132 98.2114 73.4278 97.8287 73.7284 97.4346ZM80.1307 98.3027C80.1855 98.2204 80.241 98.1385 80.2948 98.0557C80.241 98.1386 80.1855 98.2204 80.1307 98.3027ZM80.4569 97.8008C80.5049 97.7248 80.5523 97.6486 80.5995 97.5723C80.5524 97.6486 80.5049 97.7248 80.4569 97.8008ZM80.7166 97.3809C80.7758 97.2831 80.8347 97.1853 80.8924 97.0869C80.8347 97.1853 80.7758 97.2831 80.7166 97.3809ZM81.0086 96.8857C81.0665 96.7851 81.1241 96.6843 81.1805 96.583C81.1241 96.6843 81.0665 96.7851 81.0086 96.8857ZM81.2743 96.4111C81.326 96.3167 81.3771 96.2219 81.4276 96.127C81.3771 96.2219 81.326 96.3167 81.2743 96.4111ZM81.5956 95.8076C81.627 95.7466 81.6574 95.6852 81.6883 95.624C81.6574 95.6852 81.627 95.7466 81.5956 95.8076ZM81.7957 95.4102C81.84 95.3206 81.8833 95.2306 81.9266 95.1406C81.8833 95.2306 81.84 95.3206 81.7957 95.4102ZM82.0584 94.8652C82.0998 94.7768 82.1411 94.6884 82.1815 94.5996C82.1411 94.6884 82.0998 94.7768 82.0584 94.8652ZM82.286 94.3672C82.3249 94.2796 82.3622 94.1914 82.4002 94.1035C82.3622 94.1914 82.3249 94.2796 82.286 94.3672ZM82.4969 93.8779C82.5276 93.8054 82.5586 93.7329 82.5887 93.6602C82.5586 93.7329 82.5276 93.8053 82.4969 93.8779ZM82.7401 93.2881C82.7663 93.2221 82.7924 93.156 82.8182 93.0898C82.7924 93.156 82.7663 93.2221 82.7401 93.2881ZM82.9168 92.834C82.9538 92.7365 82.9902 92.6388 83.0262 92.541C82.9903 92.6388 82.9538 92.7365 82.9168 92.834ZM83.0916 92.3604C83.1334 92.2447 83.1743 92.1288 83.2147 92.0127C83.1743 92.1288 83.1334 92.2447 83.0916 92.3604ZM83.2938 91.7832C83.3283 91.6815 83.3619 91.5795 83.3954 91.4775C83.3619 91.5795 83.3283 91.6815 83.2938 91.7832ZM83.4461 91.3232C83.4881 91.1932 83.5289 91.063 83.5692 90.9326C83.5289 91.063 83.4881 91.1932 83.4461 91.3232ZM83.6151 90.7822C83.6469 90.6776 83.6771 90.5726 83.7079 90.4678C83.6771 90.5726 83.6469 90.6776 83.6151 90.7822ZM83.7752 90.2383C83.8178 90.0893 83.8597 89.9403 83.9002 89.791C83.8597 89.9403 83.8178 90.0893 83.7752 90.2383ZM83.9159 89.7324C83.9539 89.5914 83.99 89.4499 84.0262 89.3086C83.99 89.4499 83.9539 89.5914 83.9159 89.7324ZM84.3495 87.9336C84.2582 88.3566 84.1611 88.7795 84.0545 89.2012C84.1612 88.7795 84.2582 88.3566 84.3495 87.9336ZM84.5233 87.0908C84.5363 87.0232 84.5477 86.9553 84.5604 86.8877C84.5478 86.9553 84.5363 87.0232 84.5233 87.0908ZM70.3973 39.916C70.8036 40.2062 71.1869 40.5135 71.5438 40.8398L71.6112 40.9014L71.6209 40.9102C75.598 44.6741 83.3707 55.3208 84.5487 69.2539C85.3231 73.8999 85.6677 79.7247 84.8006 85.4736C84.7558 85.771 84.7048 86.0683 84.6532 86.3662C84.6738 86.2472 84.6971 86.1287 84.7166 86.0098L84.8016 85.4707C85.6686 79.722 85.3241 73.8979 84.5497 69.252C83.3717 55.3188 75.599 44.6722 71.6219 40.9082L71.6122 40.8994L71.5448 40.8379C71.188 40.5116 70.8035 40.2061 70.3973 39.916ZM2.27134 84.3564C2.27349 84.4652 2.27669 84.5732 2.27915 84.6807C2.2767 84.5732 2.27349 84.4652 2.27134 84.3564ZM10.5096 52.4639C10.4507 52.6429 10.3937 52.8229 10.3387 53.0039C10.3937 52.8229 10.4507 52.6429 10.5096 52.4639ZM4.16098 52.2764C4.14151 52.3423 4.12335 52.4086 4.10434 52.4746C4.12336 52.4086 4.1415 52.3423 4.16098 52.2764ZM10.6346 52.0947C10.592 52.2173 10.5503 52.3403 10.5096 52.4639C10.5503 52.3403 10.592 52.2173 10.6346 52.0947ZM10.7713 51.7158C10.7327 51.8206 10.6942 51.9256 10.6571 52.0312C10.6942 51.9256 10.7327 51.8206 10.7713 51.7158ZM4.63169 50.8291C4.60161 50.9136 4.57201 50.9982 4.54282 51.083C4.57202 50.9983 4.60161 50.9136 4.63169 50.8291ZM4.80356 50.3613C4.76855 50.454 4.73394 50.5467 4.70005 50.6396C4.73395 50.5467 4.76855 50.4539 4.80356 50.3613ZM5.17466 49.4365C5.13816 49.5222 5.10269 49.6083 5.06723 49.6943C5.10269 49.6083 5.13815 49.5222 5.17466 49.4365ZM5.60044 48.498C5.56271 48.5764 5.52489 48.6547 5.48813 48.7334C5.5249 48.6547 5.5627 48.5764 5.60044 48.498ZM12.5838 48.0605C12.5065 48.1781 12.4314 48.2972 12.3573 48.417C12.4314 48.2972 12.5065 48.1781 12.5838 48.0605ZM5.82309 48.0488C5.7838 48.1257 5.74519 48.203 5.70688 48.2803C5.7452 48.203 5.78379 48.1257 5.82309 48.0488ZM37.8749 35.416C32.2497 35.7742 27.0214 36.4105 23.1727 37.0303C13.9277 38.3241 8.86924 42.4991 6.12485 47.4785L6.0018 47.7061C5.99041 47.7274 5.97992 47.7492 5.9686 47.7705C6.01989 47.6738 6.07095 47.5765 6.12387 47.4805C8.86821 42.5011 13.926 38.3261 23.1707 37.0322C27.0197 36.4124 32.2491 35.7762 37.8749 35.418V35.416ZM51.8446 35.252C55.1822 35.4213 58.4409 35.7742 61.3915 36.3896C64.7089 37.0817 67.8488 38.151 70.2303 39.7988C67.9378 38.2125 64.9436 37.1603 61.7635 36.4668L61.3924 36.3877C58.4416 35.7722 55.1825 35.4213 51.8446 35.252ZM50.1209 35.1807C50.4358 35.1908 50.7503 35.2026 51.0643 35.2158C50.7503 35.2026 50.4358 35.1908 50.1209 35.1807Z" fill="#CFC4BC"/>
</svg>
