<svg width="88" height="145" viewBox="0 0 88 145" fill="none" xmlns="http://www.w3.org/2000/svg">
<path fill-rule="evenodd" clip-rule="evenodd" d="M43.9227 0.00390625C45.1719 0.0511661 46.9959 0.49084 48.5428 1.68652C50.1535 2.93163 51.3778 4.93664 51.3778 7.86914V7.92285L51.3739 7.97754C50.8665 14.7232 49.9224 27.8741 49.7059 32.9209C53.8867 33.0359 58.0827 33.4045 61.8504 34.1904C65.9521 35.046 70.1476 36.5182 73.0604 39.1816L73.0633 39.1846L73.0663 39.1865L73.1336 39.249L73.1463 39.2598L73.1581 39.2725L73.1649 39.2783L73.368 39.4736C77.688 43.6699 85.5385 54.6433 86.7792 68.9727C87.5719 73.7761 87.9262 79.8073 87.0213 85.8066C86.1131 91.8285 83.877 98.207 79.0829 103.188C75.5328 106.877 69.3682 108.771 63.4608 109.822C59.2275 110.576 54.5334 110.995 49.7831 111.166C49.8062 111.479 49.8294 111.722 49.8514 111.889L49.869 112.007L49.8856 112.104L49.8895 112.202C50.0417 116.624 50.5739 127.588 51.4842 136.071L51.492 136.148V136.226C51.492 137.466 51.1393 139.3 50.0536 140.903C48.9239 142.571 47.0362 143.925 44.1805 144.09H44.1747C42.8666 144.16 40.9246 143.864 39.3045 142.674C37.5942 141.417 36.4292 139.298 36.5887 136.152L36.5897 136.146V136.139L38.0956 111.125C32.9855 110.918 28.0718 110.479 23.8456 109.883C21.2096 109.511 18.7673 109.068 16.6727 108.56L16.2586 108.458C14.2211 107.944 12.0125 107.24 10.3807 106.208C7.40816 104.327 5.04641 102.253 3.35825 99.6074C1.68715 96.9882 0.866268 94.106 0.444189 90.876C0.0349396 87.744 -0.0252458 83.9817 0.00766571 79.4521C0.0410375 74.8595 0.169764 69.5033 0.169775 62.9062V62.7158L0.189306 62.5273C0.648334 57.8795 1.24311 51.6864 4.15903 46.3955C7.27133 40.7485 12.9676 36.1992 22.8329 34.8115C26.7464 34.182 32.0561 33.5375 37.7733 33.1748C37.3258 23.4163 36.7143 11.7318 36.2547 8.04785L36.245 7.97266L36.244 7.89746C36.2199 6.66615 36.5702 4.86136 37.6952 3.2666C38.8609 1.61421 40.8001 0.27638 43.7372 0.00878906L43.8299 0L43.9227 0.00390625ZM55.5536 108.573C55.5614 108.573 55.5692 108.572 55.577 108.571C55.5692 108.572 55.5614 108.573 55.5536 108.573ZM57.8885 108.345C57.9198 108.341 57.9511 108.338 57.9823 108.335C57.9511 108.338 57.9198 108.341 57.8885 108.345ZM59.0272 108.213C59.0738 108.207 59.1203 108.201 59.1668 108.195C59.1203 108.201 59.0738 108.207 59.0272 108.213ZM60.0731 108.077C60.1817 108.062 60.2902 108.048 60.3983 108.033C60.2902 108.048 60.1817 108.062 60.0731 108.077ZM61.2997 107.901C61.3537 107.893 61.4078 107.885 61.4618 107.877C61.4078 107.885 61.3537 107.893 61.2997 107.901ZM62.3768 107.729C62.4184 107.723 62.4603 107.717 62.5018 107.71L62.8221 107.654C62.6743 107.68 62.5258 107.705 62.3768 107.729ZM69.1991 106.15C69.2421 106.137 69.2851 106.124 69.328 106.11C69.2851 106.124 69.2421 106.137 69.1991 106.15ZM72.9618 104.705C72.981 104.696 73.0002 104.687 73.0194 104.678C73.0002 104.687 72.981 104.696 72.9618 104.705ZM73.3768 104.504C73.4035 104.491 73.4303 104.477 73.4569 104.464C73.4303 104.477 73.4035 104.491 73.3768 104.504ZM55.0008 104.106C53.2222 104.262 51.3811 104.372 49.5057 104.441V104.443C51.3812 104.374 53.2222 104.262 55.0008 104.106ZM9.46372 56.7354C9.09863 58.7879 8.87618 60.9005 8.66978 62.9873C8.66776 76.4718 8.16153 84.5307 8.89829 90.1689C9.25879 92.9277 9.90327 94.9132 10.9393 96.5371C11.958 98.1339 13.4357 99.5073 15.7196 100.952C16.1042 101.195 17.0841 101.6 18.8846 102.055C20.602 102.488 22.8015 102.902 25.3661 103.264C29.1493 103.797 33.6116 104.199 38.2899 104.396V104.395C34.0081 104.214 29.9074 103.862 26.3426 103.395L25.367 103.262C22.8022 102.9 20.602 102.486 18.8846 102.053C17.0845 101.599 16.1051 101.193 15.7206 100.95C13.5081 99.5505 12.052 98.2181 11.037 96.6846L10.9403 96.5361C9.96895 95.0137 9.34122 93.1731 8.96958 90.6758L8.89927 90.167C8.16255 84.5288 8.66873 76.4704 8.67075 62.9863C8.87711 60.9 9.09879 58.7875 9.46372 56.7354ZM58.0829 103.781C57.0914 103.904 56.073 104.012 55.0331 104.104C56.073 104.012 57.0914 103.904 58.0829 103.781ZM74.2206 104.06C74.2297 104.054 74.2388 104.049 74.2479 104.044C74.2388 104.049 74.2297 104.054 74.2206 104.06ZM74.952 103.627C74.9847 103.607 75.0172 103.586 75.0497 103.565C75.0172 103.586 74.9847 103.607 74.952 103.627ZM75.3211 103.389C75.349 103.37 75.3765 103.352 75.4042 103.333C75.3765 103.352 75.349 103.37 75.3211 103.389ZM66.7411 102.029C65.2532 102.498 63.5229 102.912 61.5584 103.262L61.2157 103.32C61.3299 103.301 61.4442 103.284 61.5575 103.264C63.5226 102.914 65.2528 102.498 66.7411 102.029ZM75.6493 103.165C75.694 103.134 75.7389 103.103 75.7831 103.071C75.7389 103.103 75.694 103.134 75.6493 103.165ZM76.0028 102.91C76.0427 102.88 76.0825 102.85 76.1219 102.82C76.0825 102.85 76.0427 102.88 76.0028 102.91ZM76.3456 102.646C76.3809 102.617 76.4161 102.589 76.451 102.561C76.4161 102.589 76.3809 102.617 76.3456 102.646ZM76.6737 102.375C76.716 102.339 76.758 102.302 76.7997 102.266C76.758 102.302 76.716 102.339 76.6737 102.375ZM49.5428 41.8936C49.2443 51.633 48.9034 65.0486 48.9745 71.7451V71.7471C49.0317 77.9382 49.1463 87.3907 49.3036 95.626C49.3479 97.948 49.3954 100.172 49.4461 102.197C53.67 102.041 57.6864 101.671 61.1649 101.052C63.7849 100.585 65.9018 100.012 67.5243 99.3779C69.174 98.7327 70.1713 98.0777 70.6981 97.5303C73.7938 94.3135 75.5906 89.7709 76.3622 84.6553C77.1272 79.5832 76.8255 74.3269 76.1141 70.0928V70.0908L76.0877 69.9326L76.0799 69.8398L76.0741 69.7715C75.052 57.45 68.1099 48.1166 65.1131 45.2666C64.2208 44.4468 62.3793 43.5559 59.1854 42.8896C56.4502 42.3191 53.1517 42.001 49.5428 41.8936ZM38.1639 42.1504C33.0858 42.4879 28.349 43.0639 24.8612 43.627H24.8592L24.7889 43.6387L24.7655 43.6416L24.7186 43.6484L24.1561 43.7324C18.4439 44.6493 15.6297 47.087 13.909 50.209C11.9521 53.7599 11.3983 58.2271 10.9149 63.0986C10.9125 69.7895 10.7869 75.211 10.7528 79.5371C10.718 83.9444 10.7788 87.2277 11.1249 89.876C11.459 92.4334 12.0301 94.0713 12.8319 95.3281C13.617 96.5586 14.8112 97.7181 16.9208 99.0527C16.9302 99.0577 17.1027 99.1538 17.5389 99.3125C17.9703 99.4694 18.5905 99.6631 19.4344 99.876L19.743 99.9521C21.3164 100.333 23.3238 100.707 25.6805 101.039C29.373 101.56 33.7432 101.955 38.3338 102.15L38.8758 74.2764C38.8374 65.8225 38.6457 47.8358 38.1952 42.8701L38.1922 42.834L38.1913 42.7979C38.1828 42.5871 38.1729 42.3713 38.1639 42.1504ZM76.9481 102.132C76.9951 102.089 77.0418 102.046 77.0877 102.003C77.0418 102.046 76.9951 102.089 76.9481 102.132ZM77.2782 101.82C77.2926 101.806 77.3078 101.793 77.3221 101.778L77.4237 101.673C77.3757 101.722 77.3274 101.772 77.2782 101.82ZM78.6161 100.343C78.4177 100.582 78.2132 100.818 78.0038 101.051C78.2132 100.818 78.4176 100.582 78.6161 100.343ZM72.3153 99.0869L72.1512 99.251C71.732 99.6528 71.2067 100.036 70.5799 100.403C71.2906 99.9871 71.8709 99.5496 72.3143 99.0889C72.3905 99.0097 72.4642 98.9281 72.5389 98.8477C72.4646 98.9276 72.391 99.0082 72.3153 99.0869ZM79.1961 99.6133C79.2413 99.5542 79.2873 99.4959 79.3319 99.4365C79.2873 99.4959 79.2413 99.5542 79.1961 99.6133ZM79.5008 99.2061C79.5524 99.1357 79.6034 99.065 79.6542 98.9941C79.6034 99.065 79.5524 99.1356 79.5008 99.2061ZM79.8934 98.6543C79.9223 98.6124 79.9507 98.5703 79.9793 98.5283C79.9507 98.5703 79.9223 98.6124 79.8934 98.6543ZM80.1209 98.3193C80.1866 98.2209 80.2522 98.1226 80.3163 98.0234C80.2522 98.1226 80.1866 98.2209 80.1209 98.3193ZM80.4286 97.8457C80.4862 97.7549 80.5431 97.6637 80.5995 97.5723C80.5431 97.6637 80.4862 97.7549 80.4286 97.8457ZM73.5272 97.6953C73.6181 97.5802 73.7074 97.4639 73.7958 97.3467C73.7074 97.4638 73.6181 97.5802 73.5272 97.6953ZM80.7079 97.3936C80.7727 97.2865 80.8381 97.18 80.9012 97.0723C80.8381 97.18 80.7727 97.2865 80.7079 97.3936ZM81.0086 96.8857C81.0665 96.7851 81.1241 96.6843 81.1805 96.583C81.1241 96.6843 81.0665 96.7851 81.0086 96.8857ZM81.2743 96.4111C81.326 96.3167 81.3771 96.2219 81.4276 96.127C81.3771 96.2219 81.326 96.3167 81.2743 96.4111ZM81.5956 95.8076C81.627 95.7466 81.6574 95.6852 81.6883 95.624C81.6574 95.6852 81.627 95.7466 81.5956 95.8076ZM81.7958 95.4111C81.8402 95.3213 81.8832 95.2309 81.9266 95.1406C81.8832 95.2309 81.8402 95.3213 81.7958 95.4111ZM82.0584 94.8652C82.0998 94.7768 82.1411 94.6884 82.1815 94.5996C82.1411 94.6884 82.0998 94.7768 82.0584 94.8652ZM82.286 94.3672C82.3267 94.2756 82.3664 94.1837 82.4061 94.0918C82.3664 94.1837 82.3267 94.2756 82.286 94.3672ZM82.4833 93.9111C82.5266 93.809 82.57 93.707 82.6122 93.6045C82.57 93.707 82.5266 93.809 82.4833 93.9111ZM82.7401 93.2881C82.7663 93.2221 82.7924 93.156 82.8182 93.0898C82.7924 93.156 82.7663 93.2221 82.7401 93.2881ZM82.9002 92.875C82.9507 92.7427 83.0011 92.6104 83.0497 92.4775C83.0011 92.6104 82.9507 92.7427 82.9002 92.875ZM83.0838 92.3809C83.128 92.2586 83.1721 92.1363 83.2147 92.0137C83.1721 92.1364 83.128 92.2586 83.0838 92.3809ZM83.2743 91.8379C83.3157 91.7163 83.3564 91.5946 83.3963 91.4727C83.3564 91.5946 83.3157 91.7163 83.2743 91.8379ZM83.4461 91.3232C83.4931 91.1777 83.538 91.0317 83.5829 90.8857C83.538 91.0317 83.4931 91.1777 83.4461 91.3232ZM83.6083 90.8027C83.6525 90.6574 83.6959 90.5119 83.7381 90.3662C83.6959 90.5119 83.6525 90.6574 83.6083 90.8027ZM83.7674 90.2637C83.7752 90.2365 83.7841 90.2098 83.7918 90.1826L83.9032 89.7822C83.8596 89.943 83.8134 90.1033 83.7674 90.2637ZM83.911 89.748C83.9533 89.5913 83.9949 89.4344 84.035 89.2773C83.9949 89.4344 83.9533 89.5913 83.911 89.748ZM84.3543 87.9131C84.2611 88.3469 84.1611 88.7805 84.0516 89.2129C84.1611 88.7805 84.261 88.3469 84.3543 87.9131ZM84.5643 86.8662C84.5447 86.9716 84.5253 87.0772 84.5047 87.1826C84.5253 87.0772 84.5446 86.9716 84.5643 86.8662ZM70.4696 39.9678C70.8491 40.2427 71.2081 40.5329 71.5438 40.8398L71.6112 40.9014L71.6209 40.9102C75.598 44.6741 83.3707 55.3208 84.5487 69.2539C85.3232 73.8999 85.6677 79.7247 84.8006 85.4736C84.7556 85.7723 84.7041 86.0709 84.6522 86.3701C84.673 86.2499 84.6969 86.1299 84.7167 86.0098L84.8016 85.4717C85.6687 79.7229 85.3241 73.8989 84.5497 69.2529C83.3718 55.3199 75.599 44.6734 71.6219 40.9092L71.6122 40.9004L71.5448 40.8379C71.2092 40.5311 70.849 40.2426 70.4696 39.9678ZM2.27134 84.3555C2.2735 84.4649 2.27668 84.5736 2.27915 84.6816C2.27668 84.5736 2.2735 84.4649 2.27134 84.3555ZM9.58286 56.1045C9.54216 56.3142 9.50126 56.5243 9.46372 56.7354C9.50126 56.5243 9.54217 56.3142 9.58286 56.1045ZM10.4208 52.7383C10.3928 52.8266 10.3657 52.9152 10.3387 53.0039C10.3926 52.8264 10.449 52.6501 10.5067 52.4746L10.4208 52.7383ZM10.6424 52.0732C10.597 52.2032 10.5528 52.3337 10.5096 52.4648C10.5528 52.3337 10.5971 52.2032 10.6424 52.0732ZM4.15513 52.2979C4.14144 52.3443 4.12854 52.391 4.11509 52.4375C4.12855 52.391 4.14144 52.3443 4.15513 52.2979ZM10.9032 51.3662C10.8704 51.4506 10.8382 51.5352 10.8065 51.6201C10.8382 51.5352 10.8704 51.4506 10.9032 51.3662ZM4.62876 50.8359C4.60706 50.897 4.58652 50.9584 4.56528 51.0195C4.58652 50.9584 4.60706 50.897 4.62876 50.8359ZM4.9852 49.8965C4.96093 49.957 4.93672 50.0175 4.91294 50.0781C4.93672 50.0175 4.96092 49.957 4.9852 49.8965ZM5.17466 49.4365C5.13965 49.5187 5.10519 49.6011 5.07114 49.6836C5.10519 49.6011 5.13964 49.5187 5.17466 49.4365ZM5.39731 48.9326C5.36165 49.011 5.32561 49.0892 5.29087 49.168C5.32561 49.0892 5.36164 49.011 5.39731 48.9326ZM5.59653 48.5049C5.55997 48.5809 5.52378 48.657 5.48813 48.7334C5.52379 48.657 5.55996 48.5809 5.59653 48.5049ZM12.3622 48.4082C12.3604 48.411 12.359 48.4141 12.3573 48.417C12.429 48.301 12.5023 48.1861 12.577 48.0723L12.3622 48.4082ZM5.83286 48.0312C5.80259 48.0904 5.77271 48.1496 5.74302 48.209C5.77271 48.1496 5.80258 48.0904 5.83286 48.0312ZM6.00181 47.7061C5.99041 47.7274 5.97992 47.7492 5.9686 47.7705C6.00985 47.6927 6.05032 47.6145 6.09263 47.5371L6.00181 47.7061ZM10.6366 42.0352C9.15596 43.2484 7.95543 44.6103 6.98423 46.0654C7.95555 44.6104 9.15585 43.2483 10.6366 42.0352ZM37.8749 35.417C32.2498 35.7752 27.0214 36.4105 23.1727 37.0303C17.8475 37.7755 13.9125 39.479 11.0077 41.7393C13.9123 39.4797 17.8466 37.7774 23.1708 37.0322C27.0197 36.4124 32.2491 35.7762 37.8749 35.418V35.417ZM69.4833 39.3145C69.7339 39.4663 69.9774 39.6241 70.2137 39.7871C69.9773 39.6241 69.7339 39.4663 69.4833 39.3145ZM68.3006 38.6621C68.698 38.8617 69.0825 39.0723 69.452 39.2949C69.0824 39.0722 68.698 38.8617 68.3006 38.6621ZM67.0418 38.084C67.4539 38.257 67.8549 38.441 68.244 38.6348C67.8549 38.441 67.4539 38.257 67.0418 38.084ZM67.0028 38.0684C66.7972 37.9825 66.5894 37.8983 66.3788 37.8174C66.5894 37.8983 66.7972 37.9825 67.0028 38.0684ZM64.3182 37.1211C65.0248 37.3306 65.7139 37.5618 66.3788 37.8174C65.7138 37.5618 65.0249 37.3306 64.3182 37.1211ZM64.2801 37.1094C64.0592 37.0442 63.8363 36.9819 63.6122 36.9209C63.8363 36.9819 64.0592 37.0442 64.2801 37.1094ZM51.8446 35.252C55.1822 35.4213 58.4409 35.7742 61.3915 36.3896C62.1262 36.5429 62.8523 36.7148 63.5633 36.9072C62.9724 36.7474 62.3715 36.6004 61.7635 36.4678L61.3924 36.3887C58.4416 35.7732 55.1825 35.4213 51.8446 35.252ZM50.1825 35.1826C50.4768 35.1923 50.7708 35.2034 51.0643 35.2158C50.7708 35.2034 50.4768 35.1923 50.1825 35.1826Z" fill="#6C5751"/>
</svg>
