<svg width="103" height="128" viewBox="0 0 103 128" fill="none" xmlns="http://www.w3.org/2000/svg">
<path d="M32.5636 26.2099C25.2156 34.1872 30.3528 46.3781 33.84 51.4763L36.9934 54.5003C39.5162 57.6792 37.1102 59.5569 35.5919 60.0984C31.107 60.5182 27.4884 66.4212 27.2328 69.995C26.9124 74.4735 23.7123 83.5904 22.1522 87.5891C18.7085 96.1262 22.0187 99.1601 24.1044 99.61C28.0687 99.61 29.7605 96.4611 30.1109 94.8866C34.2955 88.9086 34.8911 82.749 34.6659 80.4165C35.3266 73.6788 37.8193 72.7691 38.8955 70.7448C40.8777 67.8657 42.6913 68.4622 43.3504 69.1203C44.1913 70.2599 43.7008 71.4612 43.3504 71.9194C40.5073 73.9787 40.247 80.5081 40.4722 83.5154C40.4722 87.3741 37.6692 91.8876 36.2676 93.662C32.904 98.4204 33.7983 101.443 34.6659 102.359C37.0184 104.308 42.099 101.007 43.5756 99.8599C48.7212 95.8613 48.9482 90.763 48.531 88.8386C47.2496 83.8203 49.7157 79.3335 51.1088 77.7174C54.4725 68.7005 53.0443 63.0141 51.9097 61.298C48.9465 58.7188 49.4904 54.7585 50.1328 53.1007C52.7156 38.8056 49.0566 29.9669 46.9043 27.3345C46.1234 26.1749 44.2096 26.8513 43.3504 27.3345C40.5073 29.3938 42.1657 34.4237 43.3504 36.6813C44.7519 39.0005 44.7019 43.9788 44.5016 46.1781C43.1001 48.1174 41.2314 46.9861 40.4722 46.1781C36.8683 41.2997 37.8861 33.5157 38.8455 30.2335C39.4862 24.6954 34.9245 25.2435 32.5636 26.2099Z" fill="#6C5751"/>
<path d="M57.1886 25.9729C53.6927 26.4929 52.6938 30.123 52.6938 32.8231C52.8686 35.7482 54.0506 37.8734 55.0661 38.7484C56.7841 40.1284 57.197 43.3235 57.1886 44.7486C55.2109 50.9288 57.2469 53.0906 58.5121 53.3989C62.3876 53.659 62.9236 56.4741 62.7072 57.8491C62.2477 59.7492 60.4848 60.8409 59.6607 61.1493C55.7054 61.9493 55.8818 68.3995 56.4645 71.5247C57.6431 74.4248 56.9556 79.8667 56.4645 82.2251C54.8863 89.9854 57.286 96.0006 58.7118 98.6007C60.8093 102.426 64.4718 103.351 66.5028 102.426C69.9987 100.066 67.9594 94.8423 66.5028 92.5255C63.746 87.1853 63.1815 83.8251 63.9557 81.25C66.1332 76.5699 64.863 72.383 63.9557 70.8746C62.7771 67.9745 64.4468 66.5828 65.429 66.2495C69.5841 65.4494 70.9736 71.0746 70.5231 74.4998C69.9837 78.5999 70.7478 88.5087 71.1973 92.9505C71.5718 100.651 75.1675 102.251 78.1891 101.501C83.0634 99.5208 82.4674 94.0422 81.5602 91.5505C80.3216 87.1303 78.7967 77.0249 78.1891 72.5247C77.8695 64.2844 71.8465 59.3075 68.875 57.8491C67.0971 56.5891 68.1342 55.4574 68.875 55.049C73.2698 53.5289 75.5339 49.5821 76.1165 47.7987C79.4726 37.1183 76.2497 29.848 74.2187 27.5479C71.7816 25.9079 69.6408 27.4646 68.875 28.448C66.6975 31.4081 68.8001 35.7816 70.1235 37.5983C71.7715 40.7734 69.5658 45.0653 68.875 46.5737C66.4378 49.8738 63.0782 47.7737 63.3814 46.0737C64.1805 41.5935 63.7143 35.5899 63.3814 33.1482C62.2028 26.4879 58.7618 25.5895 57.1886 25.9729Z" fill="#6C5751"/>
<path d="M25.9492 3.30262C33.5676 1.58873 45.546 -0.194738 56.9258 0.0172067C62.6282 0.123412 68.341 0.732469 73.341 2.18956C78.2643 3.62427 82.8734 5.99251 85.9307 9.89821L86.0142 10.0057L86.0256 10.0207C90.957 16.5412 100.596 34.984 102.056 59.121C103.017 67.1694 103.443 77.2584 102.368 87.2174C101.294 97.1636 98.6842 107.355 93.2708 115.213C89.5365 120.634 82.6971 123.761 75.4179 125.572C67.9828 127.421 59.2892 128.092 50.8524 127.99C42.3966 127.887 34.0241 127.005 27.1728 125.655C23.7496 124.98 20.64 124.176 18.0573 123.266C15.5775 122.392 13.2041 121.292 11.5759 119.853C8.10554 116.786 5.53051 113.562 3.72701 109.613C1.94506 105.711 1.01847 101.322 0.527757 96.0759C-0.432357 85.8111 0.21099 70.9693 0.211001 48.1263V47.9891L0.22067 47.8522C0.798984 39.6715 1.51534 29.7563 4.81084 21.4025C8.21377 12.7763 14.4854 5.54392 25.9492 3.30262ZM56.7816 7.78123C46.1529 7.58328 34.7835 9.27008 27.5999 10.8902L27.5421 10.9032L27.484 10.9145C19.146 12.529 14.6917 17.496 12.0255 24.2549C9.26053 31.2639 8.56106 39.8846 7.96773 48.2651C7.96523 71.6246 7.33723 85.5847 8.2508 95.3519C8.69783 100.131 9.49679 103.571 10.7816 106.384C12.0448 109.151 13.8776 111.529 16.7096 114.032C17.1865 114.453 18.4009 115.154 20.6335 115.941C22.7631 116.692 25.4904 117.409 28.6708 118.036C35.0265 119.288 42.9273 120.128 50.9465 120.225C58.9849 120.323 66.9683 119.672 73.5475 118.036C80.2826 116.36 84.795 113.839 86.8854 110.804C91.2561 104.46 93.647 95.7311 94.6562 86.383C95.6589 77.096 95.2594 67.5656 94.3414 59.932L94.3274 59.8155L94.3204 59.6983C92.9821 37.1583 83.9352 20.1311 79.8532 14.7241C78.1929 12.5814 75.3085 10.8506 71.1731 9.64546C67.0665 8.44872 62.097 7.88024 56.7816 7.78123Z" fill="#6C5751"/>
</svg>
