<svg width="102" height="91" viewBox="0 0 102 91" fill="none" xmlns="http://www.w3.org/2000/svg">
<path d="M26.1546 2.29324C33.5613 1.10244 45.1882 -0.135426 56.2542 0.0119909C61.8027 0.0859096 67.407 0.510239 72.344 1.53933C77.0956 2.52981 81.748 4.18768 84.9534 7.0364L85.1047 7.17312L85.1087 7.17605L85.1887 7.25027L85.1956 7.25711L85.2034 7.26394L85.2122 7.27273C90.142 11.9351 99.6226 24.9243 101.08 41.9466C102.018 47.5935 102.436 54.6784 101.376 61.6985C100.315 68.7268 97.7199 76.0487 92.2473 81.7307C88.3318 85.796 81.3567 88.0055 74.3108 89.2591C67.0298 90.5544 58.5534 91.0196 50.3645 90.9485C42.1521 90.8772 34.0148 90.2649 27.3421 89.3245C24.009 88.8547 20.9595 88.2909 18.4085 87.6477C15.9936 87.0388 13.5323 86.241 11.7766 85.1311C8.32703 82.9504 5.67782 80.6013 3.80201 77.6634C1.94681 74.7576 1.00962 71.5264 0.520764 67.7884C0.0446699 64.1475 -0.0303455 59.7339 0.00904489 54.3167C0.0487029 48.8629 0.20435 42.4072 0.204357 34.5208V34.3616L0.210217 34.2981L0.219982 34.2034C0.77381 28.5997 1.4752 21.4842 4.80494 15.4466C8.30302 9.10393 14.7276 3.89322 26.1546 2.29324ZM56.0803 7.97C45.9163 7.83459 35.0215 8.99023 28.1428 10.0999H28.1419L28.0852 10.1087L28.0715 10.1116L28.0579 10.1126L28.0022 10.1204C20.3214 11.1842 16.3996 14.3976 14.0432 18.6702C11.5337 23.2206 10.8639 28.8751 10.2883 34.6819C10.2863 42.7143 10.1353 49.175 10.094 54.3968C10.0524 59.6658 10.1231 63.6792 10.551 66.9514C10.9672 70.1339 11.6959 72.307 12.8001 74.0364C13.8838 75.7337 15.4883 77.2514 18.1204 78.9153C18.3955 79.0892 19.3961 79.5344 21.5305 80.0725C23.5271 80.5759 26.1112 81.0631 29.1506 81.4915C35.2234 82.3473 42.791 82.9237 50.4778 82.9905C58.1882 83.0575 65.8065 82.6091 72.0501 81.4983L72.6428 81.3909C75.5707 80.8423 77.9986 80.1754 79.9212 79.4241C81.9877 78.6164 83.3874 77.7422 84.2131 76.885C88.1828 72.7634 90.4151 67.025 91.3645 60.7346C92.3068 54.4913 91.9329 48.0545 91.0637 42.885V42.8841L91.0501 42.804L91.0413 42.7512L91.0364 42.6975L91.0296 42.6165V42.6155C89.7706 27.4517 81.2402 15.9828 77.4739 12.4114C76.1298 11.1753 73.6279 10.0441 69.721 9.22976C65.8697 8.427 61.1646 8.03773 56.0803 7.97Z" fill="#CFC4BC"/>
</svg>
