<svg width="36" height="60" viewBox="0 0 36 60" fill="none" xmlns="http://www.w3.org/2000/svg">
<path d="M8.8962 15.647C11.508 15.2266 15.6146 14.7892 19.5159 14.8411C21.4709 14.8672 23.4294 15.0166 25.1436 15.3739C26.8314 15.7258 28.4115 16.3067 29.4597 17.2647L29.4883 17.291L29.4922 17.2947C31.1829 18.894 34.4874 23.4175 34.9881 29.3376C35.3173 31.3116 35.4635 33.7861 35.0949 36.2288C34.7268 38.6683 33.832 41.1679 31.9761 43.0953C30.6959 44.4248 28.3511 45.1919 25.8556 45.636C23.3066 46.0896 20.3261 46.2542 17.4338 46.2291C14.5349 46.2039 11.6645 45.9875 9.31568 45.6564C8.14211 45.4909 7.07603 45.2937 6.19059 45.0704C5.34044 44.856 4.52677 44.5863 3.96859 44.2334C2.77883 43.4811 1.89603 42.6905 1.27773 41.7219C0.666828 40.7648 0.349164 39.6883 0.180931 38.4015C-0.148225 35.8839 0.072334 32.2436 0.0723378 26.6409V26.6072L0.0756523 26.5737C0.273916 24.5672 0.519504 22.1353 1.6493 20.0863C2.81593 17.9706 4.96605 16.1967 8.8962 15.647ZM19.4665 16.7454C15.8226 16.6969 11.9248 17.1106 9.4621 17.508L9.44228 17.5112L9.42236 17.5139C6.56383 17.9099 5.03678 19.1282 4.12269 20.7859C3.17479 22.505 2.935 24.6194 2.73158 26.6749C2.73073 32.4043 2.51543 35.8283 2.82863 38.2239C2.98188 39.3962 3.25579 40.2399 3.69625 40.9299C4.12932 41.6084 4.75767 42.1916 5.72857 42.8055C5.89207 42.9089 6.3084 43.0809 7.07379 43.2739C7.80388 43.458 8.73891 43.6339 9.82923 43.7876C12.0082 44.0948 14.7168 44.3007 17.466 44.3246C20.2218 44.3486 22.9588 44.1889 25.2144 43.7876C27.5233 43.3767 29.0703 42.7582 29.787 42.0139C31.2854 40.4578 32.1051 38.3169 32.4511 36.0241C32.7948 33.7463 32.6578 31.4088 32.3431 29.5365L32.3383 29.5079L32.336 29.4792C31.8771 23.9508 28.7756 19.7745 27.3761 18.4483C26.8069 17.9228 25.8181 17.4982 24.4003 17.2027C22.9924 16.9091 21.2888 16.7697 19.4665 16.7454Z" fill="#6C5751"/>
<path d="M15.015 2.72934C14.9987 1.90079 15.5041 0.194953 17.6558 0C18.5197 0.0324921 20.2476 0.623849 20.2476 2.72934C20.0031 5.96231 19.5141 12.7499 19.5141 14.0366C19.5141 15.1749 19.5396 14.7696 19.5568 14.3123C19.5589 14.2518 19.561 14.1924 19.563 14.1341C19.5611 14.1922 19.559 14.2527 19.5568 14.3123C19.4248 18.1151 19.1822 26.2688 19.2207 29.8765C19.2696 35.1402 19.4163 45.9504 19.6119 47.0811C19.6771 48.9657 19.9053 53.6413 20.2965 57.2674C20.2965 58.1284 19.788 59.8798 17.7536 59.9967C16.8407 60.0455 15.0444 59.5678 15.1617 57.2674L15.8464 45.9601L16.1398 30.9488C16.1235 27.3746 16.042 19.6902 15.8464 17.5458C15.6834 13.5167 15.2889 4.91281 15.015 2.72934Z" fill="#6C5751"/>
</svg>
