<svg width="55" height="50" viewBox="0 0 55 50" fill="none" xmlns="http://www.w3.org/2000/svg">
<path d="M30.334 0.00646217C33.3257 0.0463382 36.3477 0.275794 39.0098 0.830681C41.5718 1.36477 44.0803 2.25854 45.8086 3.79455L45.8907 3.86779L45.8926 3.86974L45.9356 3.90978L45.9395 3.91369L45.9434 3.91662L45.9483 3.9215C48.6065 6.43556 53.7188 13.44 54.5049 22.6188C55.0104 25.6636 55.2354 29.4839 54.6641 33.2692C54.0921 37.059 52.6932 41.008 49.7422 44.0719C47.6309 46.2639 43.8696 47.4555 40.0703 48.1315C36.1442 48.83 31.573 49.08 27.1573 49.0416C22.729 49.0031 18.3412 48.6727 14.7432 48.1656C12.946 47.9123 11.3013 47.6091 9.92581 47.2623C8.62383 46.934 7.29722 46.5033 6.35061 45.9049C4.49051 44.729 3.06132 43.4627 2.04983 41.8785C1.04943 40.3116 0.543894 38.5691 0.2803 36.5533C0.0235759 34.5901 -0.0163325 32.2098 0.00490892 29.2887C0.0262984 26.348 0.110372 22.8671 0.110378 18.6149V18.5289L0.113307 18.4947L0.11819 18.444C0.416836 15.4222 0.795246 11.5845 2.59085 8.32873C4.47714 4.90876 7.94202 2.09965 14.1035 1.23693C18.0975 0.59484 24.3672 -0.0730265 30.334 0.00646217ZM30.2403 4.29845C24.7595 4.22544 18.884 4.84755 15.1748 5.44592L15.1446 5.45177L15.1367 5.45275L15.1299 5.45373L15.0996 5.45763C10.9579 6.03126 8.84293 7.76409 7.57229 10.068C6.21917 12.5216 5.85821 15.5707 5.54788 18.7018C5.54679 23.033 5.46465 26.517 5.44241 29.3326C5.41997 32.1737 5.45876 34.3378 5.68948 36.1022C5.91389 37.8182 6.30698 38.9899 6.90237 39.9225C7.48673 40.8376 8.35139 41.6562 9.77053 42.5533C9.91874 42.647 10.4582 42.8871 11.6094 43.1774C12.686 43.4488 14.0797 43.712 15.7188 43.943C18.9933 44.4045 23.074 44.7146 27.2188 44.7506C31.3764 44.7867 35.4849 44.5459 38.8516 43.9469L39.1709 43.8883C40.7497 43.5924 42.059 43.2329 43.0957 42.8278C44.2102 42.3922 44.9649 41.9209 45.4102 41.4586C47.5507 39.2361 48.7537 36.1416 49.2657 32.7496C49.7737 29.3831 49.5722 25.9121 49.1035 23.1246L49.0967 23.0807L49.0918 23.0524L49.0889 23.024L49.086 22.9801L49.0108 22.2194C48.122 14.4207 43.7429 8.55862 41.7754 6.69299C41.0507 6.02652 39.7021 5.41627 37.5957 4.97717C35.5191 4.54431 32.9817 4.335 30.2403 4.29845Z" fill="#F7F0E9"/>
</svg>
