<svg width="37" height="60" viewBox="0 0 37 60" fill="none" xmlns="http://www.w3.org/2000/svg">
<path fill-rule="evenodd" clip-rule="evenodd" d="M18.2893 0.000976562C18.8093 0.0207012 19.5682 0.204512 20.2121 0.702148C20.8828 1.22055 21.3927 2.05533 21.3928 3.27637V3.29883L21.3918 3.32129C21.1805 6.13065 20.7875 11.6086 20.6975 13.709C22.4379 13.7569 24.1847 13.9101 25.7531 14.2373C27.4608 14.5935 29.2073 15.2067 30.4201 16.3154L30.4221 16.3164L30.4231 16.3184L30.4514 16.3438L30.4641 16.3564L30.549 16.4375C32.3478 18.1848 35.6164 22.7536 36.133 28.7197C36.4631 30.7198 36.6104 33.2314 36.2336 35.7295C35.8554 38.2369 34.9242 40.8926 32.9279 42.9668C31.4497 44.5027 28.8828 45.2916 26.4231 45.7295C24.6606 46.0432 22.7064 46.215 20.7287 46.2861C20.7384 46.417 20.7488 46.5182 20.758 46.5879L20.7649 46.6377L20.7717 46.6777L20.7736 46.7188C20.837 48.5599 21.0587 53.125 21.4377 56.6572L21.4406 56.6895V56.7217C21.4406 57.2382 21.2939 58.0016 20.842 58.6689C20.3717 59.3633 19.5856 59.9272 18.3967 59.9961H18.3938C17.8492 60.0253 17.0409 59.9018 16.3664 59.4062C15.6542 58.8829 15.1691 58.0002 15.2356 56.6904V56.6855L15.8625 46.2715C13.7347 46.1851 11.6887 46.0021 9.92892 45.7539C8.83146 45.5991 7.81468 45.4146 6.94259 45.2031L6.76974 45.1611C5.92144 44.9471 5.0019 44.6544 4.32247 44.2246C3.08474 43.4416 2.10155 42.5773 1.39865 41.4756C0.702848 40.385 0.361495 39.1847 0.185754 37.8398C0.0154002 36.5359 -0.010559 34.9697 0.0031373 33.084C0.0170323 31.1717 0.0714909 28.9412 0.0714967 26.1943V26.1152L0.0793092 26.0361C0.270434 24.1009 0.517578 21.5223 1.73165 19.3193C3.02751 16.9681 5.39955 15.0739 9.50704 14.4961C11.1365 14.234 13.3474 13.9655 15.7277 13.8145C15.5414 9.75098 15.2873 4.88466 15.0959 3.35059L15.092 3.31934V3.28809C15.082 2.7755 15.2274 2.0242 15.6955 1.36035C16.1809 0.672327 16.9892 0.115319 18.2121 0.00390625L18.2502 0L18.2893 0.000976562ZM21.4162 45.3223C21.6817 45.3091 21.9462 45.2945 22.2092 45.2773C21.9462 45.2945 21.6817 45.3091 21.4162 45.3223ZM22.5334 45.2539C22.7708 45.2367 23.007 45.2189 23.2414 45.1982C23.007 45.2189 22.7708 45.2367 22.5334 45.2539ZM23.6897 45.1543C23.8563 45.1378 24.0221 45.1219 24.1867 45.1035C24.0221 45.1219 23.8563 45.1378 23.6897 45.1543ZM24.7317 45.0361C24.888 45.0162 25.0435 44.9973 25.1975 44.9756C25.0435 44.9973 24.888 45.0162 24.7317 45.0361ZM25.9494 44.8604C25.9743 44.8562 25.9998 44.8538 26.0246 44.8496L26.26 44.8086C26.1574 44.8269 26.0534 44.843 25.9494 44.8604ZM28.4709 44.3027C28.2277 44.373 27.9796 44.4384 27.7277 44.5C27.9796 44.4384 28.2277 44.373 28.4709 44.3027ZM29.2912 44.041C29.0521 44.1251 28.8061 44.2033 28.5549 44.2773C28.8061 44.2033 29.0521 44.1251 29.2912 44.041ZM29.4904 43.9678C29.5497 43.9459 29.6089 43.9249 29.6672 43.9023C29.6089 43.9249 29.5497 43.9459 29.4904 43.9678ZM29.9455 43.79C29.9808 43.7753 30.0161 43.7611 30.051 43.7461C30.0161 43.7611 29.9808 43.7753 29.9455 43.79ZM30.2346 43.6631C30.2992 43.6338 30.3638 43.6055 30.427 43.5752C30.3638 43.6055 30.2992 43.6338 30.2346 43.6631ZM30.5608 43.5088C30.6367 43.4708 30.7119 43.433 30.7854 43.3936C30.7119 43.433 30.6367 43.4708 30.5608 43.5088ZM30.926 43.3145C30.981 43.2835 31.0356 43.2526 31.0891 43.2207C31.0356 43.2526 30.981 43.2835 30.926 43.3145ZM31.2776 43.1025C31.3219 43.0742 31.3663 43.0467 31.4094 43.0176C31.3663 43.0467 31.3218 43.0742 31.2776 43.1025ZM26.9983 42.7051C26.5783 42.8109 26.123 42.9097 25.632 42.9971C26.123 42.9096 26.5783 42.8109 26.9983 42.7051ZM9.79025 42.8809H9.79122H9.79025ZM31.5608 42.9102C31.6088 42.8756 31.657 42.8422 31.7033 42.8066C31.657 42.8422 31.6088 42.8756 31.5608 42.9102ZM31.8361 42.6992C31.8852 42.6591 31.9338 42.6194 31.9807 42.5781C31.9338 42.6194 31.8852 42.6591 31.8361 42.6992ZM20.6291 17.4443C20.5048 21.4995 20.3622 27.0849 20.3918 29.873L20.3928 29.874C20.4166 32.4518 20.464 36.3875 20.5295 39.8164C20.548 40.7829 20.568 41.7087 20.5891 42.5518C22.3475 42.4865 24.0198 42.335 25.468 42.0771C26.5588 41.8829 27.4399 41.6441 28.1154 41.3799C28.8021 41.1113 29.2173 40.8392 29.4367 40.6113C30.7258 39.2719 31.4738 37.3801 31.7951 35.25C32.1137 33.1381 31.9888 30.9486 31.6926 29.1855L31.6809 29.1201L31.6779 29.0811L31.676 29.0527C31.2504 23.9223 28.3593 20.0363 27.1115 18.8496C26.74 18.5083 25.9735 18.1368 24.6438 17.8594C23.505 17.6218 22.1316 17.4891 20.6291 17.4443ZM15.8908 17.5527C13.7764 17.6933 11.803 17.9325 10.3508 18.167L10.3313 18.1699L10.3215 18.1719L10.3117 18.1729L10.2922 18.1758C7.75584 18.5273 6.53077 19.5653 5.79122 20.9072C4.97638 22.3858 4.7464 24.246 4.54513 26.2744C4.54413 29.0604 4.49197 31.3178 4.47775 33.1191C4.46327 34.9541 4.48798 36.3212 4.63204 37.4238C4.7712 38.4888 5.00909 39.171 5.34298 39.6943C5.66989 40.2067 6.16764 40.6894 7.04611 41.2451C7.05261 41.2486 7.12479 41.2887 7.30294 41.3535C7.48252 41.4188 7.74071 41.4993 8.092 41.5879L8.22091 41.6191C8.87597 41.7779 9.71148 41.9339 10.6926 42.0723C12.2302 42.2891 14.0505 42.4528 15.9621 42.5342L16.1877 30.9268C16.1717 27.4069 16.092 19.9186 15.9045 17.8506L15.9026 17.835V17.8203C15.899 17.7333 15.8945 17.6439 15.8908 17.5527ZM32.2541 42.3184C32.1944 42.3804 32.1309 42.4395 32.0666 42.499C32.1098 42.459 32.1544 42.421 32.1955 42.3799L32.2541 42.3193V42.3184ZM6.09005 41.7285C6.2331 41.8297 6.38436 41.9328 6.54611 42.0352C6.38435 41.9328 6.2331 41.8297 6.09005 41.7285ZM32.5871 41.9531C32.6915 41.833 32.7933 41.7118 32.8908 41.5879C32.7933 41.7118 32.6915 41.833 32.5871 41.9531ZM33.0363 41.3945C33.0809 41.335 33.126 41.2761 33.1692 41.2158C33.126 41.2761 33.0809 41.335 33.0363 41.3945ZM30.6154 40.6797C30.4821 40.8485 30.3404 41.0104 30.1936 41.168C30.3404 41.0104 30.4821 40.8485 30.6154 40.6797ZM33.5656 40.6152C33.6059 40.5497 33.646 40.4842 33.6848 40.418C33.646 40.4842 33.6059 40.5497 33.5656 40.6152ZM4.55489 40.1973H4.55587H4.55489ZM33.8078 40.2012C33.8387 40.1456 33.8698 40.0902 33.8996 40.0342C33.8698 40.0902 33.8387 40.1456 33.8078 40.2012ZM34.0002 39.8389C34.041 39.7587 34.0815 39.6786 34.1203 39.5977C34.0815 39.6786 34.041 39.7587 34.0002 39.8389ZM34.1887 39.4492C34.2273 39.3657 34.2663 39.2825 34.3029 39.1982C34.2663 39.2825 34.2273 39.3657 34.1887 39.4492ZM34.3947 38.9785C34.4244 38.9063 34.4543 38.8343 34.4826 38.7617C34.4543 38.8343 34.4244 38.9063 34.3947 38.9785ZM34.5578 38.5625C34.5873 38.483 34.6159 38.4032 34.6438 38.3232C34.6159 38.4032 34.5873 38.483 34.5578 38.5625ZM34.7082 38.1338C34.7407 38.036 34.7728 37.9382 34.8029 37.8398C34.7728 37.9382 34.7407 38.036 34.7082 38.1338ZM34.8391 37.7178C34.8638 37.6345 34.8882 37.5513 34.9113 37.4678C34.8882 37.5513 34.8638 37.6345 34.8391 37.7178ZM34.9641 37.2686C34.9888 37.1742 35.0135 37.0799 35.0363 36.9854C35.0135 37.0799 34.9888 37.1742 34.9641 37.2686ZM35.0627 36.874C35.0886 36.7631 35.1126 36.6521 35.1359 36.541C35.1126 36.6521 35.0886 36.7631 35.0627 36.874ZM35.1662 36.3965C35.1827 36.3145 35.1979 36.2324 35.2131 36.1504C35.1979 36.2324 35.1827 36.3145 35.1662 36.3965ZM35.259 35.8936C35.2635 35.8671 35.2693 35.8409 35.2736 35.8145L35.3098 35.5898C35.2945 35.6911 35.2761 35.7922 35.259 35.8936ZM4.07247 22.9668C3.85166 23.9617 3.73345 25.0046 3.63009 26.0361C3.73345 25.0046 3.85165 23.9617 4.07247 22.9668ZM34.5344 25.2412C34.6098 25.5017 34.6788 25.7671 34.7443 26.0361C34.6788 25.7671 34.6098 25.5017 34.5344 25.2412ZM1.35079 23.4189C1.328 23.5475 1.30652 23.6758 1.28634 23.8037C1.30887 23.6609 1.33377 23.5177 1.35958 23.374L1.35079 23.4189ZM1.85958 21.3662C1.83399 21.4427 1.8103 21.5198 1.78634 21.5967C1.8103 21.5198 1.83399 21.4427 1.85958 21.3662ZM2.00021 20.9736C1.98368 21.0174 1.96829 21.0615 1.95236 21.1055C1.96829 21.0615 1.98368 21.0174 2.00021 20.9736ZM2.49923 19.8652C2.48186 19.8977 2.46636 19.9312 2.44943 19.9639C2.48282 19.8994 2.5149 19.8342 2.55001 19.7705L2.49923 19.8652ZM5.88497 19.2002C5.6742 19.4217 5.48381 19.6566 5.31271 19.9053C5.4838 19.6566 5.67421 19.4217 5.88497 19.2002ZM11.1701 17.0977V17.0986V17.0977ZM29.383 16.6729C29.526 16.7784 29.6626 16.8891 29.7902 17.0059C29.6626 16.8891 29.526 16.7784 29.383 16.6729ZM29.3654 16.6602C29.301 16.613 29.2354 16.5665 29.1682 16.5215C29.2354 16.5665 29.301 16.613 29.3654 16.6602ZM28.7707 16.2764C28.751 16.2652 28.7311 16.2542 28.7111 16.2432C28.7311 16.2542 28.751 16.2652 28.7707 16.2764ZM28.5637 16.1641C28.5303 16.1465 28.497 16.1285 28.4631 16.1113C28.497 16.1285 28.5303 16.1465 28.5637 16.1641ZM28.3088 16.0361C28.2709 16.0179 28.233 15.9992 28.1945 15.9814C28.233 15.9992 28.2709 16.0179 28.3088 16.0361ZM28.1203 15.9482C28.0583 15.9204 27.9961 15.892 27.9328 15.8652C27.9961 15.892 28.0583 15.9204 28.1203 15.9482ZM27.842 15.8281C27.7829 15.8039 27.7234 15.7801 27.6633 15.7568C27.7234 15.7801 27.7829 15.8039 27.842 15.8281ZM27.509 15.6992C27.483 15.6896 27.4571 15.6794 27.4309 15.6699C27.4571 15.6794 27.483 15.6896 27.509 15.6992ZM26.9104 15.4971C26.8932 15.4918 26.8759 15.4867 26.8586 15.4814C26.8759 15.4867 26.8932 15.4918 26.9104 15.4971ZM26.5842 15.4033C26.4646 15.3698 26.3444 15.3363 26.2229 15.3057C26.3444 15.3363 26.4646 15.3698 26.5842 15.4033ZM25.9777 15.2471C25.891 15.2267 25.8044 15.2046 25.717 15.1855L25.5627 15.1523C25.7021 15.1814 25.8401 15.2147 25.9777 15.2471ZM24.5031 14.9639C24.4441 14.9548 24.3849 14.9451 24.3254 14.9365C24.3849 14.9451 24.4441 14.9548 24.5031 14.9639ZM23.9006 14.8799C23.8253 14.8703 23.7499 14.8595 23.674 14.8506C23.7499 14.8595 23.8253 14.8703 23.9006 14.8799ZM23.26 14.8066C23.1746 14.7979 23.0891 14.7883 23.0031 14.7803C23.0891 14.7883 23.1746 14.7979 23.26 14.8066ZM22.634 14.749C22.5207 14.7398 22.4072 14.7307 22.2932 14.7227C22.4072 14.7307 22.5207 14.7398 22.634 14.749ZM22.0022 14.7031C21.8658 14.6946 21.7291 14.6867 21.592 14.6797C21.7291 14.6867 21.8658 14.6946 22.0022 14.7031ZM21.3127 14.667C21.183 14.6614 21.0531 14.6557 20.9231 14.6514C21.0531 14.6557 21.183 14.6614 21.3127 14.667Z" fill="#F7F0E9"/>
</svg>
