<svg width="48" height="60" viewBox="0 0 48 60" fill="none" xmlns="http://www.w3.org/2000/svg">
<path d="M9.23639 0.479321C3.53532 6.66565 7.52115 16.1196 10.2267 20.0732L12.6733 22.4183C14.6307 24.8835 12.764 26.3396 11.586 26.7595C8.10628 27.0851 5.29874 31.6629 5.1004 34.4343C4.85185 37.9073 2.36897 44.9774 1.15859 48.0783C-1.5133 54.6988 1.05503 57.0516 2.67318 57.4005C5.74897 57.4005 7.06161 54.9585 7.33346 53.7375C10.5801 49.1016 11.0423 44.3249 10.8675 42.5161C11.3801 37.291 13.3141 36.5856 14.1491 35.0157C15.687 32.7831 17.0941 33.2456 17.6055 33.756C18.2579 34.6397 17.8773 35.5713 17.6055 35.9266C15.3996 37.5236 15.1977 42.5871 15.3724 44.9193C15.3724 47.9117 13.1976 51.4118 12.1102 52.7879C9.50049 56.4779 10.1944 58.8217 10.8675 59.5323C12.6928 61.044 16.6346 58.4841 17.7802 57.5943C21.7725 54.4934 21.9486 50.5397 21.625 49.0474C20.6308 45.1557 22.5441 41.6762 23.625 40.423C26.2348 33.4304 25.1267 29.0206 24.2464 27.6898C21.9473 25.6897 22.3693 22.6185 22.8677 21.3329C24.8716 10.2472 22.0327 3.39286 20.3628 1.35143C19.757 0.452161 18.2722 0.976733 17.6055 1.35143C15.3996 2.9484 16.6864 6.84909 17.6055 8.59982C18.6929 10.3983 18.654 14.259 18.4987 15.9645C17.4113 17.4684 15.9614 16.5911 15.3724 15.9645C12.5763 12.1814 13.3659 6.14494 14.1103 3.59962C14.6074 -0.695151 11.0681 -0.270067 9.23639 0.479321Z" fill="#F7F0E9"/>
<path d="M28.3418 0.295424C25.6295 0.698696 24.8545 3.51378 24.8545 5.60772C24.9901 7.87612 25.9072 9.52413 26.695 10.2027C28.028 11.2729 28.3483 13.7507 28.3418 14.8558C26.8074 19.6485 28.387 21.325 29.3687 21.5641C32.3755 21.7657 32.7914 23.9488 32.6235 25.0152C32.267 26.4887 30.8992 27.3353 30.2599 27.5744C27.191 28.1948 27.3279 33.1969 27.78 35.6204C28.6944 37.8694 28.161 42.0896 27.78 43.9185C26.5556 49.9366 28.4174 54.6013 29.5236 56.6177C31.151 59.5841 33.9926 60.3014 35.5683 59.5841C38.2807 57.7538 36.6985 53.703 35.5683 51.9064C33.4294 47.7651 32.9915 45.1593 33.5922 43.1624C35.2816 39.5329 34.2961 36.2861 33.5922 35.1163C32.6777 32.8673 33.9732 31.7881 34.7352 31.5295C37.9591 30.9091 39.0371 35.2714 38.6875 37.9276C38.2691 41.1072 38.8619 48.7914 39.2106 52.236C39.5012 58.2075 42.291 59.4483 44.6354 58.8667C48.4172 57.3312 47.9548 53.0826 47.2508 51.1502C46.2899 47.7224 45.1068 39.8858 44.6354 36.3959C44.3874 30.0056 39.7144 26.1461 37.4089 25.0152C36.0294 24.038 36.8341 23.1604 37.4089 22.8437C40.8187 21.6649 42.5753 18.6042 43.0273 17.2212C45.6312 8.93859 43.1306 3.30054 41.5549 1.51684C39.664 0.244984 38.003 1.45221 37.4089 2.21481C35.7194 4.51036 37.3507 7.90197 38.3776 9.31084C39.6562 11.7731 37.9449 15.1014 37.4089 16.2711C35.518 18.8304 32.9113 17.2018 33.1466 15.8834C33.7666 12.409 33.4049 7.75335 33.1466 5.85979C32.2321 0.694818 29.5624 -0.00185932 28.3418 0.295424Z" fill="#F7F0E9"/>
</svg>
